<?xml version="1.0" encoding="UTF-8" standalone="no"?>
<!-- Created with Inkscape (http://www.inkscape.org/) -->

<svg
   version="1.1"
   id="svg2"
   xml:space="preserve"
   width="864"
   height="1152"
   viewBox="0 0 864 1152"
   sodipodi:docname="AccPrec.pdf"
   xmlns:inkscape="http://www.inkscape.org/namespaces/inkscape"
   xmlns:sodipodi="http://sodipodi.sourceforge.net/DTD/sodipodi-0.dtd"
   xmlns="http://www.w3.org/2000/svg"
   xmlns:svg="http://www.w3.org/2000/svg"><defs
     id="defs6"><rect
       x="737.75998"
       y="298.34669"
       width="4.2030089"
       height="54.758039"
       id="rect9003" /><clipPath
       clipPathUnits="userSpaceOnUse"
       id="clipPath40"><path
         d="M 0,576 H 648 V 864 H 0 Z"
         id="path38" /></clipPath><clipPath
       clipPathUnits="userSpaceOnUse"
       id="clipPath52"><path
         d="M 33.48,607.91 H 642.52 V 840.85 H 33.48 Z"
         id="path50" /></clipPath><clipPath
       clipPathUnits="userSpaceOnUse"
       id="clipPath288"><path
         d="M 0,288 H 648 V 576 H 0 Z"
         id="path286" /></clipPath><clipPath
       clipPathUnits="userSpaceOnUse"
       id="clipPath300"><path
         d="M 33.48,319.91 H 642.52 V 552.85 H 33.48 Z"
         id="path298" /></clipPath><clipPath
       clipPathUnits="userSpaceOnUse"
       id="clipPath534"><path
         d="M 0,0 H 648 V 288 H 0 Z"
         id="path532" /></clipPath><clipPath
       clipPathUnits="userSpaceOnUse"
       id="clipPath546"><path
         d="M 28.47,31.91 H 642.52 V 264.85 H 28.47 Z"
         id="path544" /></clipPath><clipPath
       clipPathUnits="userSpaceOnUse"
       id="clipPath8083"><path
         d="M 59.04,73.44 H 545.76 V 372.96 H 59.04 Z"
         id="path8081" /></clipPath><clipPath
       clipPathUnits="userSpaceOnUse"
       id="clipPath8097"><path
         d="M 59.04,73.44 H 545.76 V 372.96 H 59.04 Z"
         id="path8095" /></clipPath></defs><sodipodi:namedview
     id="namedview4"
     pagecolor="#ffffff"
     bordercolor="#666666"
     borderopacity="1.0"
     inkscape:pageshadow="2"
     inkscape:pageopacity="0.0"
     inkscape:pagecheckerboard="0"
     showgrid="false" /><g
     id="g8"
     inkscape:groupmode="layer"
     inkscape:label="AccPrec"
     transform="matrix(1.3333333,0,0,-1.3333333,0,1152)"><g
       id="g10" /><g
       id="g12" /><g
       id="g14" /><g
       id="g16" /><g
       id="g18" /><g
       id="g20" /><g
       id="g22" /><g
       id="g24" /><g
       id="g26" /><g
       id="g28" /><g
       id="g30" /><g
       id="g32" /><g
       id="g34"><g
         id="g36"
         clip-path="url(#clipPath40)"><path
           d="M 0,576 H 648 V 864 H 0 Z"
           style="fill:#ffffff;fill-opacity:1;fill-rule:nonzero;stroke:#ffffff;stroke-width:1.07;stroke-linecap:round;stroke-linejoin:round;stroke-miterlimit:10;stroke-dasharray:none;stroke-opacity:1"
           id="path42" /></g></g><g
       id="g44" /><g
       id="g46"><g
         id="g48"
         clip-path="url(#clipPath52)"><path
           d="M 33.48,607.91 H 642.52 V 840.85 H 33.48 Z"
           style="fill:#ebebeb;fill-opacity:1;fill-rule:nonzero;stroke:none"
           id="path54" /><path
           d="M 33.48,645.94 H 642.52"
           style="fill:none;stroke:#ffffff;stroke-width:0.53;stroke-linecap:butt;stroke-linejoin:round;stroke-miterlimit:10;stroke-dasharray:none;stroke-opacity:1"
           id="path56" /><path
           d="M 33.48,708 H 642.52"
           style="fill:none;stroke:#ffffff;stroke-width:0.53;stroke-linecap:butt;stroke-linejoin:round;stroke-miterlimit:10;stroke-dasharray:none;stroke-opacity:1"
           id="path58" /><path
           d="M 33.48,770.06 H 642.52"
           style="fill:none;stroke:#ffffff;stroke-width:0.53;stroke-linecap:butt;stroke-linejoin:round;stroke-miterlimit:10;stroke-dasharray:none;stroke-opacity:1"
           id="path60" /><path
           d="M 33.48,832.12 H 642.52"
           style="fill:none;stroke:#ffffff;stroke-width:0.53;stroke-linecap:butt;stroke-linejoin:round;stroke-miterlimit:10;stroke-dasharray:none;stroke-opacity:1"
           id="path62" /><path
           d="M 76.54,607.91 V 840.85"
           style="fill:none;stroke:#ffffff;stroke-width:0.53;stroke-linecap:butt;stroke-linejoin:round;stroke-miterlimit:10;stroke-dasharray:none;stroke-opacity:1"
           id="path64" /><path
           d="M 230.34,607.91 V 840.85"
           style="fill:none;stroke:#ffffff;stroke-width:0.53;stroke-linecap:butt;stroke-linejoin:round;stroke-miterlimit:10;stroke-dasharray:none;stroke-opacity:1"
           id="path66" /><path
           d="M 384.14,607.91 V 840.85"
           style="fill:none;stroke:#ffffff;stroke-width:0.53;stroke-linecap:butt;stroke-linejoin:round;stroke-miterlimit:10;stroke-dasharray:none;stroke-opacity:1"
           id="path68" /><path
           d="M 537.94,607.91 V 840.85"
           style="fill:none;stroke:#ffffff;stroke-width:0.53;stroke-linecap:butt;stroke-linejoin:round;stroke-miterlimit:10;stroke-dasharray:none;stroke-opacity:1"
           id="path70" /><path
           d="M 33.48,614.92 H 642.52"
           style="fill:none;stroke:#ffffff;stroke-width:1.07;stroke-linecap:butt;stroke-linejoin:round;stroke-miterlimit:10;stroke-dasharray:none;stroke-opacity:1"
           id="path72" /><path
           d="M 33.48,676.97 H 642.52"
           style="fill:none;stroke:#ffffff;stroke-width:1.07;stroke-linecap:butt;stroke-linejoin:round;stroke-miterlimit:10;stroke-dasharray:none;stroke-opacity:1"
           id="path74" /><path
           d="M 33.48,739.03 H 642.52"
           style="fill:none;stroke:#ffffff;stroke-width:1.07;stroke-linecap:butt;stroke-linejoin:round;stroke-miterlimit:10;stroke-dasharray:none;stroke-opacity:1"
           id="path76" /><path
           d="M 33.48,801.09 H 642.52"
           style="fill:none;stroke:#ffffff;stroke-width:1.07;stroke-linecap:butt;stroke-linejoin:round;stroke-miterlimit:10;stroke-dasharray:none;stroke-opacity:1"
           id="path78" /><path
           d="M 153.44,607.91 V 840.85"
           style="fill:none;stroke:#ffffff;stroke-width:1.07;stroke-linecap:butt;stroke-linejoin:round;stroke-miterlimit:10;stroke-dasharray:none;stroke-opacity:1"
           id="path80" /><path
           d="M 307.24,607.91 V 840.85"
           style="fill:none;stroke:#ffffff;stroke-width:1.07;stroke-linecap:butt;stroke-linejoin:round;stroke-miterlimit:10;stroke-dasharray:none;stroke-opacity:1"
           id="path82" /><path
           d="M 461.04,607.91 V 840.85"
           style="fill:none;stroke:#ffffff;stroke-width:1.07;stroke-linecap:butt;stroke-linejoin:round;stroke-miterlimit:10;stroke-dasharray:none;stroke-opacity:1"
           id="path84" /><path
           d="M 614.84,607.91 V 840.85"
           style="fill:none;stroke:#ffffff;stroke-width:1.07;stroke-linecap:butt;stroke-linejoin:round;stroke-miterlimit:10;stroke-dasharray:none;stroke-opacity:1"
           id="path86" /><path
           d="m 61.16,664.08 5.28,2.84 5.28,2.84 5.29,2.85 5.28,2.84 5.28,2.85 5.28,2.22 5.28,-0.68 5.29,-0.68 5.28,-0.69 5.28,-0.68 5.28,-0.68 5.28,-0.73 5.29,-0.85 5.28,-0.84 5.28,-0.84 5.28,-0.84 5.28,-0.84 5.29,-1.48 5.28,-2.04 5.28,-2.04 5.28,-2.04 5.28,-2.04 5.29,-2.05 5.28,-0.91 5.28,-0.44 5.28,-0.45 5.28,-0.44 5.29,-0.45 5.28,-0.44 5.28,-0.6 5.28,-0.62 5.28,-0.62 5.29,-0.62 5.28,-0.61 5.28,-0.63 5.28,-0.67 5.28,-0.68 5.29,-0.67 5.28,-0.68 5.28,-0.68 5.28,-0.66 5.28,-0.62 5.29,-0.63 5.28,-0.62 5.28,-0.62 5.28,-0.62 5.28,-0.64 5.29,-0.64 5.28,-0.65 5.28,-0.65 5.28,-0.64 5.28,-0.65 5.29,-0.25 5.28,0.02 5.28,0.02 5.28,0.03 5.28,0.02 5.29,0.02 5.28,-0.4 5.28,-0.54 5.28,-0.53 5.28,-0.54 5.29,-0.54 5.28,-0.53 5.28,-0.62 5.28,-0.63 5.28,-0.62 5.29,-0.63 5.28,-0.63 5.28,-0.6 5.28,-0.4 5.28,-0.41 5.29,-0.4 5.28,-0.41 5.28,-0.4 5.28,-0.32 5.28,-0.1 5.29,-0.09 5.28,-0.1 5.28,-0.1 5.28,-0.1 5.28,-0.16 5.29,-0.22 5.28,-0.21 5.28,-0.22 5.28,-0.22 5.28,-0.22 5.29,-0.54 5.28,-0.71 5.28,-0.72 5.28,-0.71 5.28,-0.72 5.29,-0.71 5.28,-0.28 5.28,-0.19 5.28,-0.18 5.28,-0.19 5.28,-0.18 5.29,-0.18"
           style="fill:none;stroke:#01ff00;stroke-width:1.07;stroke-linecap:butt;stroke-linejoin:round;stroke-miterlimit:10;stroke-dasharray:none;stroke-opacity:0.502"
           id="path88" /><path
           d="m 61.16,745.78 5.28,-0.99 5.28,-0.99 5.29,-0.99 5.28,-0.99 5.28,-0.99 5.28,-1.7 5.28,-5.01 5.29,-5.01 5.28,-5.02 5.28,-5.01 5.28,-5.01 5.28,-4.06 5.29,-2.31 5.28,-2.31 5.28,-2.32 5.28,-2.31 5.28,-2.31 5.29,-2.37 5.28,-2.41 5.28,-2.4 5.28,-2.41 5.28,-2.41 5.29,-2.41 5.28,-1.64 5.28,-1.31 5.28,-1.32 5.28,-1.31 5.29,-1.32 5.28,-1.32 5.28,-1.14 5.28,-1.12 5.28,-1.12 5.29,-1.12 5.28,-1.12 5.28,-1.09 5.28,-0.58 5.28,-0.58 5.29,-0.58 5.28,-0.57 5.28,-0.58 5.28,-0.6 5.28,-0.69 5.29,-0.69 5.28,-0.68 5.28,-0.69 5.28,-0.68 5.28,-0.83 5.29,-1.01 5.28,-1.02 5.28,-1.02 5.28,-1.02 5.28,-1.01 5.29,-0.35 5.28,0.13 5.28,0.12 5.28,0.13 5.28,0.12 5.29,0.13 5.28,-0.47 5.28,-0.64 5.28,-0.65 5.28,-0.64 5.29,-0.64 5.28,-0.65 5.28,-0.55 5.28,-0.54 5.28,-0.54 5.29,-0.54 5.28,-0.55 5.28,-0.46 5.28,0.11 5.28,0.11 5.29,0.11 5.28,0.11 5.28,0.11 5.28,-0.21 5.28,-0.98 5.29,-0.98 5.28,-0.99 5.28,-0.98 5.28,-0.98 5.28,-0.76 5.29,-0.5 5.28,-0.49 5.28,-0.5 5.28,-0.5 5.28,-0.49 5.29,-1 5.28,-1.27 5.28,-1.26 5.28,-1.27 5.28,-1.27 5.29,-1.27 5.28,-0.41 5.28,-0.24 5.28,-0.24 5.28,-0.23 5.28,-0.24 5.29,-0.23"
           style="fill:none;stroke:#01ff00;stroke-width:1.07;stroke-linecap:butt;stroke-linejoin:round;stroke-miterlimit:10;stroke-dasharray:none;stroke-opacity:0.502"
           id="path90" /><path
           d="m 61.16,830.26 5.28,-3.97 5.28,-3.96 5.29,-3.97 5.28,-3.96 5.28,-3.96 5.28,-4.41 5.28,-6.48 5.29,-6.48 5.28,-6.48 5.28,-6.48 5.28,-6.47 5.28,-5.83 5.29,-4.62 5.28,-4.63 5.28,-4.62 5.28,-4.63 5.28,-4.62 5.29,-4.53 5.28,-4.45 5.28,-4.45 5.28,-4.45 5.28,-4.44 5.29,-4.45 5.28,-2.2 5.28,-1.25 5.28,-1.26 5.28,-1.26 5.29,-1.26 5.28,-1.26 5.28,-2.94 5.28,-3.16 5.28,-3.16 5.29,-3.16 5.28,-3.17 5.28,-3.02 5.28,-0.74 5.28,-0.75 5.29,-0.75 5.28,-0.74 5.28,-0.75 5.28,-0.79 5.28,-0.91 5.29,-0.92 5.28,-0.92 5.28,-0.92 5.28,-0.92 5.28,-0.77 5.29,-0.56 5.28,-0.56 5.28,-0.55 5.28,-0.56 5.28,-0.56 5.29,-0.95 5.28,-1.22 5.28,-1.23 5.28,-1.22 5.28,-1.22 5.29,-1.23 5.28,-0.41 5.28,-0.15 5.28,-0.16 5.28,-0.16 5.29,-0.15 5.28,-0.16 5.28,-0.82 5.28,-0.87 5.28,-0.86 5.29,-0.86 5.28,-0.87 5.28,-0.77 5.28,-0.07 5.28,-0.06 5.29,-0.07 5.28,-0.06 5.28,-0.07 5.28,-0.26 5.28,-0.7 5.29,-0.71 5.28,-0.71 5.28,-0.71 5.28,-0.71 5.28,-0.42 5.29,-0.1 5.28,-0.1 5.28,-0.1 5.28,-0.1 5.28,-0.09 5.29,-0.25 5.28,-0.33 5.28,-0.33 5.28,-0.32 5.28,-0.33 5.29,-0.33 5.28,-0.12 5.28,-0.09 5.28,-0.08 5.28,-0.08 5.28,-0.08 5.29,-0.08"
           style="fill:none;stroke:#01ff00;stroke-width:1.07;stroke-linecap:butt;stroke-linejoin:round;stroke-miterlimit:10;stroke-dasharray:none;stroke-opacity:0.502"
           id="path92" /><path
           d="m 61.16,638.67 5.59,0.27 5.6,0.26 5.59,0.27 5.59,0.26 5.59,0.27 5.6,0.45 5.59,0.63 5.59,0.63 5.59,0.63 5.6,0.63 5.59,0.63 5.59,-0.74 5.6,-0.75 5.59,-0.74 5.59,-0.75 5.59,-0.74 5.6,-0.62 5.59,-0.49 5.59,-0.5 5.59,-0.49 5.6,-0.49 5.59,-0.49 5.59,-0.19 5.6,-0.18 5.59,-0.18 5.59,-0.18 5.59,-0.19 5.6,-0.13 5.59,-0.1 5.59,-0.09 5.59,-0.1 5.6,-0.09 5.59,-0.1 5.59,-0.43 5.59,-0.43 5.6,-0.44 5.59,-0.43 5.59,-0.43 5.6,-0.43 5.59,-0.44 5.59,-0.43 5.59,-0.43 5.6,-0.43 5.59,-0.44 5.59,-0.22 5.59,-0.23 5.6,-0.22 5.59,-0.23 5.59,-0.23 5.59,-0.25 5.6,-0.29 5.59,-0.29 5.59,-0.29 5.6,-0.28 5.59,-0.29 5.59,-0.15 5.59,-0.15 5.6,-0.15 5.59,-0.14 5.59,-0.15 5.59,-0.19 5.6,-0.23 5.59,-0.23 5.59,-0.23 5.6,-0.23 5.59,-0.23 5.59,-0.19 5.59,-0.2 5.6,-0.19 5.59,-0.19 5.59,-0.2 5.59,-0.33 5.6,-0.47 5.59,-0.47 5.59,-0.47 5.59,-0.47 5.6,-0.47 5.59,-0.13 5.59,-0.14 5.6,-0.13 5.59,-0.14 5.59,-0.13 5.59,-0.18 5.6,-0.22 5.59,-0.23 5.59,-0.22 5.59,-0.22 5.6,-0.22 5.59,-0.11 5.59,-0.11 5.6,-0.11 5.59,-0.11 5.59,-0.11 5.59,-0.13 5.6,-0.17 5.59,-0.16 5.59,-0.16 5.59,-0.17 5.6,-0.16"
           style="fill:none;stroke:#0000ff;stroke-width:1.71;stroke-linecap:butt;stroke-linejoin:round;stroke-miterlimit:10;stroke-dasharray:none;stroke-opacity:0.8"
           id="path94" /><path
           d="m 61.16,672.99 5.59,-0.5 5.6,-0.5 5.59,-0.5 5.59,-0.5 5.59,-0.5 5.6,-0.91 5.59,-1.31 5.59,-1.31 5.59,-1.31 5.6,-1.3 5.59,-1.31 5.59,-1.93 5.6,-1.93 5.59,-1.93 5.59,-1.93 5.59,-1.93 5.6,-1.47 5.59,-1.01 5.59,-1.01 5.59,-1.02 5.6,-1.01 5.59,-1.01 5.59,-0.17 5.6,-0.16 5.59,-0.17 5.59,-0.16 5.59,-0.17 5.6,-0.23 5.59,-0.3 5.59,-0.29 5.59,-0.3 5.6,-0.3 5.59,-0.3 5.59,-0.44 5.59,-0.45 5.6,-0.44 5.59,-0.45 5.59,-0.44 5.6,-0.65 5.59,-0.86 5.59,-0.85 5.59,-0.85 5.6,-0.86 5.59,-0.85 5.59,-0.13 5.59,-0.14 5.6,-0.13 5.59,-0.13 5.59,-0.14 5.59,-0.24 5.6,-0.35 5.59,-0.35 5.59,-0.36 5.6,-0.35 5.59,-0.35 5.59,-0.27 5.59,-0.27 5.6,-0.27 5.59,-0.27 5.59,-0.27 5.59,-0.23 5.6,-0.19 5.59,-0.2 5.59,-0.19 5.6,-0.19 5.59,-0.2 5.59,-0.06 5.59,-0.07 5.6,-0.06 5.59,-0.07 5.59,-0.07 5.59,-0.37 5.6,-0.7 5.59,-0.69 5.59,-0.69 5.59,-0.69 5.6,-0.69 5.59,-0.05 5.59,-0.05 5.6,-0.04 5.59,-0.05 5.59,-0.05 5.59,-0.2 5.6,-0.36 5.59,-0.35 5.59,-0.36 5.59,-0.36 5.6,-0.35 5.59,-0.19 5.59,-0.18 5.6,-0.19 5.59,-0.18 5.59,-0.19 5.59,-0.28 5.6,-0.37 5.59,-0.38 5.59,-0.37 5.59,-0.37 5.6,-0.37"
           style="fill:none;stroke:#0000ff;stroke-width:1.71;stroke-linecap:butt;stroke-linejoin:round;stroke-miterlimit:10;stroke-dasharray:none;stroke-opacity:0.8"
           id="path96" /><path
           d="m 61.16,715.54 5.59,-2.41 5.6,-2.41 5.59,-2.41 5.59,-2.41 5.59,-2.4 5.6,-2.29 5.59,-2.18 5.59,-2.17 5.59,-2.17 5.6,-2.17 5.59,-2.17 5.59,-1.74 5.6,-1.74 5.59,-1.74 5.59,-1.74 5.59,-1.74 5.6,-1.94 5.59,-2.12 5.59,-2.13 5.59,-2.13 5.6,-2.12 5.59,-2.13 5.59,-0.55 5.6,-0.56 5.59,-0.55 5.59,-0.56 5.59,-0.55 5.6,-0.82 5.59,-1.06 5.59,-1.07 5.59,-1.06 5.6,-1.07 5.59,-1.06 5.59,-1.1 5.59,-1.11 5.6,-1.1 5.59,-1.1 5.59,-1.1 5.6,-1.09 5.59,-1.09 5.59,-1.08 5.59,-1.08 5.6,-1.08 5.59,-1.09 5.59,-0.38 5.59,-0.39 5.6,-0.38 5.59,-0.39 5.59,-0.39 5.59,-0.39 5.6,-0.39 5.59,-0.4 5.59,-0.39 5.6,-0.39 5.59,-0.4 5.59,-0.18 5.59,-0.18 5.6,-0.19 5.59,-0.18 5.59,-0.18 5.59,-0.18 5.6,-0.19 5.59,-0.18 5.59,-0.18 5.6,-0.18 5.59,-0.19 5.59,-0.37 5.59,-0.37 5.6,-0.37 5.59,-0.37 5.59,-0.38 5.59,-0.37 5.6,-0.37 5.59,-0.37 5.59,-0.37 5.59,-0.37 5.6,-0.38 5.59,-0.05 5.59,-0.05 5.6,-0.04 5.59,-0.05 5.59,-0.05 5.59,-0.22 5.6,-0.38 5.59,-0.38 5.59,-0.38 5.59,-0.39 5.6,-0.38 5.59,0.13 5.59,0.12 5.6,0.12 5.59,0.13 5.59,0.12 5.59,0.07 5.6,0.01 5.59,0.02 5.59,0.01 5.59,0.02 5.6,0.01"
           style="fill:none;stroke:#0000ff;stroke-width:1.71;stroke-linecap:butt;stroke-linejoin:round;stroke-miterlimit:10;stroke-dasharray:none;stroke-opacity:0.8"
           id="path98" /><path
           d="m 61.16,670.31 5.59,-0.13 5.6,-0.12 5.59,-0.12 5.59,-0.12 5.59,-0.12 5.6,-1.39 5.59,-2.66 5.59,-2.67 5.59,-2.66 5.6,-2.66 5.59,-2.67 5.59,0.31 5.6,0.31 5.59,0.3 5.59,0.31 5.59,0.3 5.6,-0.07 5.59,-0.45 5.59,-0.46 5.59,-0.45 5.6,-0.45 5.59,-0.45 5.59,-0.73 5.6,-0.73 5.59,-0.72 5.59,-0.73 5.59,-0.73 5.6,-0.53 5.59,-0.33 5.59,-0.33 5.59,-0.33 5.6,-0.33 5.59,-0.33 5.59,-0.52 5.59,-0.52 5.6,-0.51 5.59,-0.52 5.59,-0.52 5.6,-0.31 5.59,-0.1 5.59,-0.1 5.59,-0.11 5.6,-0.1 5.59,-0.1 5.59,-0.71 5.59,-0.7 5.6,-0.71 5.59,-0.7 5.59,-0.71 5.59,-0.34 5.6,0.03 5.59,0.03 5.59,0.03 5.6,0.03 5.59,0.03 5.59,-0.36 5.59,-0.35 5.6,-0.35 5.59,-0.36 5.59,-0.35 5.59,-0.35 5.6,-0.36 5.59,-0.35 5.59,-0.35 5.6,-0.36 5.59,-0.35 5.59,-0.35 5.59,-0.35 5.6,-0.35 5.59,-0.35 5.59,-0.35 5.59,-0.24 5.6,-0.14 5.59,-0.14 5.59,-0.14 5.59,-0.14 5.6,-0.14 5.59,-0.28 5.59,-0.28 5.6,-0.28 5.59,-0.28 5.59,-0.29 5.59,-0.35 5.6,-0.43 5.59,-0.43 5.59,-0.42 5.59,-0.43 5.6,-0.43 5.59,-0.16 5.59,-0.17 5.6,-0.16 5.59,-0.17 5.59,-0.16 5.59,-0.57 5.6,-0.98 5.59,-0.98 5.59,-0.98 5.59,-0.98 5.6,-0.98"
           style="fill:none;stroke:#ff0000;stroke-width:1.71;stroke-linecap:butt;stroke-linejoin:round;stroke-miterlimit:10;stroke-dasharray:none;stroke-opacity:0.8"
           id="path100" /><path
           d="m 61.16,731.22 5.59,-4.48 5.6,-4.48 5.59,-4.48 5.59,-4.48 5.59,-4.49 5.6,-3.7 5.59,-2.92 5.59,-2.92 5.59,-2.93 5.6,-2.92 5.59,-2.92 5.59,-2.35 5.6,-2.35 5.59,-2.35 5.59,-2.35 5.59,-2.34 5.6,-1.68 5.59,-1.02 5.59,-1.01 5.59,-1.01 5.6,-1.02 5.59,-1.01 5.59,-1.05 5.6,-1.05 5.59,-1.06 5.59,-1.05 5.59,-1.05 5.6,-0.85 5.59,-0.64 5.59,-0.65 5.59,-0.64 5.6,-0.65 5.59,-0.65 5.59,-0.31 5.59,-0.32 5.6,-0.32 5.59,-0.32 5.59,-0.31 5.6,-0.36 5.59,-0.39 5.59,-0.4 5.59,-0.39 5.6,-0.39 5.59,-0.39 5.59,-0.81 5.59,-0.81 5.6,-0.8 5.59,-0.81 5.59,-0.8 5.59,-0.35 5.6,0.12 5.59,0.12 5.59,0.12 5.6,0.11 5.59,0.12 5.59,-0.41 5.59,-0.41 5.6,-0.41 5.59,-0.41 5.59,-0.41 5.59,-0.52 5.6,-0.62 5.59,-0.62 5.59,-0.62 5.6,-0.62 5.59,-0.63 5.59,0.44 5.59,0.43 5.6,0.44 5.59,0.43 5.59,0.44 5.59,-0.12 5.6,-0.68 5.59,-0.67 5.59,-0.68 5.59,-0.67 5.6,-0.68 5.59,-0.49 5.59,-0.5 5.6,-0.49 5.59,-0.49 5.59,-0.49 5.59,-0.71 5.6,-0.91 5.59,-0.92 5.59,-0.91 5.59,-0.92 5.6,-0.91 5.59,-0.45 5.59,-0.45 5.6,-0.45 5.59,-0.46 5.59,-0.45 5.59,-0.51 5.6,-0.56 5.59,-0.56 5.59,-0.56 5.59,-0.56 5.6,-0.57"
           style="fill:none;stroke:#ff0000;stroke-width:1.71;stroke-linecap:butt;stroke-linejoin:round;stroke-miterlimit:10;stroke-dasharray:none;stroke-opacity:0.8"
           id="path102" /><path
           d="m 61.16,824.69 5.59,-6.45 5.6,-6.45 5.59,-6.45 5.59,-6.45 5.59,-6.45 5.6,-7.1 5.59,-7.74 5.59,-7.74 5.59,-7.74 5.6,-7.75 5.59,-7.74 5.59,-5.78 5.6,-5.78 5.59,-5.79 5.59,-5.78 5.59,-5.78 5.6,-4.74 5.59,-3.69 5.59,-3.69 5.59,-3.69 5.6,-3.69 5.59,-3.69 5.59,-0.37 5.6,-0.38 5.59,-0.38 5.59,-0.38 5.59,-0.37 5.6,-0.96 5.59,-1.53 5.59,-1.53 5.59,-1.53 5.6,-1.53 5.59,-1.53 5.59,-1.02 5.59,-1.01 5.6,-1.01 5.59,-1.01 5.59,-1.02 5.6,-0.84 5.59,-0.66 5.59,-0.67 5.59,-0.66 5.6,-0.67 5.59,-0.67 5.59,-0.59 5.59,-0.59 5.6,-0.59 5.59,-0.59 5.59,-0.59 5.59,-0.65 5.6,-0.71 5.59,-0.71 5.59,-0.71 5.6,-0.71 5.59,-0.71 5.59,-0.42 5.59,-0.42 5.6,-0.42 5.59,-0.42 5.59,-0.42 5.59,-0.59 5.6,-0.77 5.59,-0.77 5.59,-0.76 5.6,-0.77 5.59,-0.77 5.59,-0.14 5.59,-0.15 5.6,-0.15 5.59,-0.14 5.59,-0.15 5.59,-0.32 5.6,-0.51 5.59,-0.51 5.59,-0.5 5.59,-0.51 5.6,-0.51 5.59,-0.27 5.59,-0.27 5.6,-0.26 5.59,-0.27 5.59,-0.27 5.59,-0.27 5.6,-0.28 5.59,-0.27 5.59,-0.27 5.59,-0.28 5.6,-0.27 5.59,-0.2 5.59,-0.19 5.6,-0.2 5.59,-0.19 5.59,-0.2 5.59,-0.09 h 5.6 l 5.59,0.01 h 5.59 l 5.59,0.01 5.6,0.01"
           style="fill:none;stroke:#ff0000;stroke-width:1.71;stroke-linecap:butt;stroke-linejoin:round;stroke-miterlimit:10;stroke-dasharray:none;stroke-opacity:0.8"
           id="path104" /></g></g><g
       id="g106" /><g
       id="g108" /><g
       id="g110" /><g
       id="g112" /><g
       id="g114" /><g
       id="g116" /><g
       id="g118" /><g
       id="g120" /><g
       id="g122" /><g
       id="g124" /><g
       id="g126" /><g
       id="g128" /><g
       id="g130" /><g
       id="g132" /><g
       id="g134" /><g
       id="g136"><text
         transform="matrix(1,0,0,-1,23.54,611.68)"
         style="font-variant:normal;font-weight:normal;font-size:9px;font-family:Helvetica;-inkscape-font-specification:Helvetica;writing-mode:lr-tb;fill:#4d4d4d;fill-opacity:1;fill-rule:nonzero;stroke:none"
         id="text140"><tspan
           x="0"
           y="0"
           id="tspan138">0</tspan></text><text
         transform="matrix(1,0,0,-1,18.54,673.74)"
         style="font-variant:normal;font-weight:normal;font-size:9px;font-family:Helvetica;-inkscape-font-specification:Helvetica;writing-mode:lr-tb;fill:#4d4d4d;fill-opacity:1;fill-rule:nonzero;stroke:none"
         id="text144"><tspan
           x="0 5.0040002"
           y="0"
           sodipodi:role="line"
           id="tspan142">20</tspan></text><text
         transform="matrix(1,0,0,-1,18.54,735.8)"
         style="font-variant:normal;font-weight:normal;font-size:9px;font-family:Helvetica;-inkscape-font-specification:Helvetica;writing-mode:lr-tb;fill:#4d4d4d;fill-opacity:1;fill-rule:nonzero;stroke:none"
         id="text148"><tspan
           x="0 5.0040002"
           y="0"
           sodipodi:role="line"
           id="tspan146">40</tspan></text><text
         transform="matrix(1,0,0,-1,18.54,797.86)"
         style="font-variant:normal;font-weight:normal;font-size:9px;font-family:Helvetica;-inkscape-font-specification:Helvetica;writing-mode:lr-tb;fill:#4d4d4d;fill-opacity:1;fill-rule:nonzero;stroke:none"
         id="text152"><tspan
           x="0 5.0040002"
           y="0"
           sodipodi:role="line"
           id="tspan150">60</tspan></text></g><g
       id="g154" /><g
       id="g156"><path
         d="m 30.74,614.92 h 2.74"
         style="fill:none;stroke:#333333;stroke-width:1.07;stroke-linecap:butt;stroke-linejoin:round;stroke-miterlimit:10;stroke-dasharray:none;stroke-opacity:1"
         id="path158" /><path
         d="m 30.74,676.97 h 2.74"
         style="fill:none;stroke:#333333;stroke-width:1.07;stroke-linecap:butt;stroke-linejoin:round;stroke-miterlimit:10;stroke-dasharray:none;stroke-opacity:1"
         id="path160" /><path
         d="m 30.74,739.03 h 2.74"
         style="fill:none;stroke:#333333;stroke-width:1.07;stroke-linecap:butt;stroke-linejoin:round;stroke-miterlimit:10;stroke-dasharray:none;stroke-opacity:1"
         id="path162" /><path
         d="m 30.74,801.09 h 2.74"
         style="fill:none;stroke:#333333;stroke-width:1.07;stroke-linecap:butt;stroke-linejoin:round;stroke-miterlimit:10;stroke-dasharray:none;stroke-opacity:1"
         id="path164" /></g><g
       id="g166" /><g
       id="g168" /><g
       id="g170" /><g
       id="g172" /><g
       id="g174" /><g
       id="g176" /><g
       id="g178" /><g
       id="g180" /><g
       id="g182" /><g
       id="g184"><path
         d="m 153.44,605.17 v 2.74"
         style="fill:none;stroke:#333333;stroke-width:1.07;stroke-linecap:butt;stroke-linejoin:round;stroke-miterlimit:10;stroke-dasharray:none;stroke-opacity:1"
         id="path186" /><path
         d="m 307.24,605.17 v 2.74"
         style="fill:none;stroke:#333333;stroke-width:1.07;stroke-linecap:butt;stroke-linejoin:round;stroke-miterlimit:10;stroke-dasharray:none;stroke-opacity:1"
         id="path188" /><path
         d="m 461.04,605.17 v 2.74"
         style="fill:none;stroke:#333333;stroke-width:1.07;stroke-linecap:butt;stroke-linejoin:round;stroke-miterlimit:10;stroke-dasharray:none;stroke-opacity:1"
         id="path190" /><path
         d="m 614.84,605.17 v 2.74"
         style="fill:none;stroke:#333333;stroke-width:1.07;stroke-linecap:butt;stroke-linejoin:round;stroke-miterlimit:10;stroke-dasharray:none;stroke-opacity:1"
         id="path192" /></g><g
       id="g194" /><g
       id="g196"><text
         transform="matrix(1,0,0,-1,148.44,596.52)"
         style="font-variant:normal;font-weight:normal;font-size:9px;font-family:Helvetica;-inkscape-font-specification:Helvetica;writing-mode:lr-tb;fill:#4d4d4d;fill-opacity:1;fill-rule:nonzero;stroke:none"
         id="text200"><tspan
           x="0 5.0040002"
           y="0"
           sodipodi:role="line"
           id="tspan198">25</tspan></text><text
         transform="matrix(1,0,0,-1,302.23,596.52)"
         style="font-variant:normal;font-weight:normal;font-size:9px;font-family:Helvetica;-inkscape-font-specification:Helvetica;writing-mode:lr-tb;fill:#4d4d4d;fill-opacity:1;fill-rule:nonzero;stroke:none"
         id="text204"><tspan
           x="0 5.0040002"
           y="0"
           sodipodi:role="line"
           id="tspan202">50</tspan></text><text
         transform="matrix(1,0,0,-1,456.03,596.52)"
         style="font-variant:normal;font-weight:normal;font-size:9px;font-family:Helvetica;-inkscape-font-specification:Helvetica;writing-mode:lr-tb;fill:#4d4d4d;fill-opacity:1;fill-rule:nonzero;stroke:none"
         id="text208"><tspan
           x="0 5.0040002"
           y="0"
           sodipodi:role="line"
           id="tspan206">75</tspan></text><text
         transform="matrix(1,0,0,-1,607.33,596.52)"
         style="font-variant:normal;font-weight:normal;font-size:9px;font-family:Helvetica;-inkscape-font-specification:Helvetica;writing-mode:lr-tb;fill:#4d4d4d;fill-opacity:1;fill-rule:nonzero;stroke:none"
         id="text212"><tspan
           x="0 5.0040002 10.008"
           y="0"
           sodipodi:role="line"
           id="tspan210">100</tspan></text></g><g
       id="g214" /><g
       id="g216" /><g
       id="g218" /><g
       id="g220" /><g
       id="g222" /><g
       id="g224" /><g
       id="g226" /><g
       id="g228"><text
         transform="matrix(0,1,1,0,13.38,719.8)"
         style="font-variant:normal;font-weight:normal;font-size:11px;font-family:Helvetica;-inkscape-font-specification:Helvetica;writing-mode:lr-tb;fill:#000000;fill-opacity:1;fill-rule:nonzero;stroke:none"
         id="text232"><tspan
           x="0 5.5"
           y="0"
           sodipodi:role="line"
           id="tspan230">yr</tspan></text></g><g
       id="g234" /><g
       id="g236" /><g
       id="g238" /><g
       id="g240" /><g
       id="g242" /><g
       id="g244"><text
         transform="matrix(1,0,0,-1,33.48,849.19)"
         style="font-variant:normal;font-weight:normal;font-size:13px;font-family:Helvetica;-inkscape-font-specification:Helvetica;writing-mode:lr-tb;fill:#000000;fill-opacity:1;fill-rule:nonzero;stroke:none"
         id="text248"><tspan
           x="0 8.6709995 13 16.614 25.285 28.171 35.398998"
           y="0"
           sodipodi:role="line"
           id="tspan246">A) Bias</tspan></text></g><g
       id="g250" /><g
       id="g252" /><g
       id="g254" /><g
       id="g256" /><g
       id="g258" /><g
       id="g260" /><g
       id="g262" /><g
       id="g264" /><g
       id="g266" /><g
       id="g268" /><g
       id="g270" /><g
       id="g272" /><g
       id="g274" /><g
       id="g276" /><g
       id="g278" /><g
       id="g280" /><g
       id="g282"><g
         id="g284"
         clip-path="url(#clipPath288)"><path
           d="M 0,288 H 648 V 576 H 0 Z"
           style="fill:#ffffff;fill-opacity:1;fill-rule:nonzero;stroke:#ffffff;stroke-width:1.07;stroke-linecap:round;stroke-linejoin:round;stroke-miterlimit:10;stroke-dasharray:none;stroke-opacity:1"
           id="path290" /></g></g><g
       id="g292" /><g
       id="g294"><g
         id="g296"
         clip-path="url(#clipPath300)"><path
           d="M 33.48,319.91 H 642.52 V 552.85 H 33.48 Z"
           style="fill:#ebebeb;fill-opacity:1;fill-rule:nonzero;stroke:none"
           id="path302" /><path
           d="M 33.48,364.11 H 642.52"
           style="fill:none;stroke:#ffffff;stroke-width:0.53;stroke-linecap:butt;stroke-linejoin:round;stroke-miterlimit:10;stroke-dasharray:none;stroke-opacity:1"
           id="path304" /><path
           d="M 33.48,431.34 H 642.52"
           style="fill:none;stroke:#ffffff;stroke-width:0.53;stroke-linecap:butt;stroke-linejoin:round;stroke-miterlimit:10;stroke-dasharray:none;stroke-opacity:1"
           id="path306" /><path
           d="M 33.48,498.56 H 642.52"
           style="fill:none;stroke:#ffffff;stroke-width:0.53;stroke-linecap:butt;stroke-linejoin:round;stroke-miterlimit:10;stroke-dasharray:none;stroke-opacity:1"
           id="path308" /><path
           d="M 76.54,319.91 V 552.85"
           style="fill:none;stroke:#ffffff;stroke-width:0.53;stroke-linecap:butt;stroke-linejoin:round;stroke-miterlimit:10;stroke-dasharray:none;stroke-opacity:1"
           id="path310" /><path
           d="M 230.34,319.91 V 552.85"
           style="fill:none;stroke:#ffffff;stroke-width:0.53;stroke-linecap:butt;stroke-linejoin:round;stroke-miterlimit:10;stroke-dasharray:none;stroke-opacity:1"
           id="path312" /><path
           d="M 384.14,319.91 V 552.85"
           style="fill:none;stroke:#ffffff;stroke-width:0.53;stroke-linecap:butt;stroke-linejoin:round;stroke-miterlimit:10;stroke-dasharray:none;stroke-opacity:1"
           id="path314" /><path
           d="M 537.94,319.91 V 552.85"
           style="fill:none;stroke:#ffffff;stroke-width:0.53;stroke-linecap:butt;stroke-linejoin:round;stroke-miterlimit:10;stroke-dasharray:none;stroke-opacity:1"
           id="path316" /><path
           d="M 33.48,330.5 H 642.52"
           style="fill:none;stroke:#ffffff;stroke-width:1.07;stroke-linecap:butt;stroke-linejoin:round;stroke-miterlimit:10;stroke-dasharray:none;stroke-opacity:1"
           id="path318" /><path
           d="M 33.48,397.72 H 642.52"
           style="fill:none;stroke:#ffffff;stroke-width:1.07;stroke-linecap:butt;stroke-linejoin:round;stroke-miterlimit:10;stroke-dasharray:none;stroke-opacity:1"
           id="path320" /><path
           d="M 33.48,464.95 H 642.52"
           style="fill:none;stroke:#ffffff;stroke-width:1.07;stroke-linecap:butt;stroke-linejoin:round;stroke-miterlimit:10;stroke-dasharray:none;stroke-opacity:1"
           id="path322" /><path
           d="M 33.48,532.18 H 642.52"
           style="fill:none;stroke:#ffffff;stroke-width:1.07;stroke-linecap:butt;stroke-linejoin:round;stroke-miterlimit:10;stroke-dasharray:none;stroke-opacity:1"
           id="path324" /><path
           d="M 153.44,319.91 V 552.85"
           style="fill:none;stroke:#ffffff;stroke-width:1.07;stroke-linecap:butt;stroke-linejoin:round;stroke-miterlimit:10;stroke-dasharray:none;stroke-opacity:1"
           id="path326" /><path
           d="M 307.24,319.91 V 552.85"
           style="fill:none;stroke:#ffffff;stroke-width:1.07;stroke-linecap:butt;stroke-linejoin:round;stroke-miterlimit:10;stroke-dasharray:none;stroke-opacity:1"
           id="path328" /><path
           d="M 461.04,319.91 V 552.85"
           style="fill:none;stroke:#ffffff;stroke-width:1.07;stroke-linecap:butt;stroke-linejoin:round;stroke-miterlimit:10;stroke-dasharray:none;stroke-opacity:1"
           id="path330" /><path
           d="M 614.84,319.91 V 552.85"
           style="fill:none;stroke:#ffffff;stroke-width:1.07;stroke-linecap:butt;stroke-linejoin:round;stroke-miterlimit:10;stroke-dasharray:none;stroke-opacity:1"
           id="path332" /><path
           d="m 61.16,350.48 5.28,1.03 5.28,1.03 5.29,1.03 5.28,1.03 5.28,1.03 5.28,1 5.28,0.86 5.29,0.87 5.28,0.87 5.28,0.86 5.28,0.87 5.28,0.91 5.29,0.98 5.28,0.99 5.28,0.99 5.28,0.98 5.28,0.99 5.29,0.69 5.28,0.44 5.28,0.44 5.28,0.44 5.28,0.44 5.29,0.43 5.28,-0.11 5.28,-0.35 5.28,-0.34 5.28,-0.35 5.29,-0.35 5.28,-0.34 5.28,0.45 5.28,0.57 5.28,0.56 5.29,0.57 5.28,0.56 5.28,0.51 5.28,-0.33 5.28,-0.33 5.29,-0.34 5.28,-0.33 5.28,-0.34 5.28,-0.16 5.28,0.38 5.29,0.38 5.28,0.37 5.28,0.38 5.28,0.38 5.28,0.21 5.29,-0.05 5.28,-0.05 5.28,-0.05 5.28,-0.04 5.28,-0.05 5.29,-0.29 5.28,-0.45 5.28,-0.45 5.28,-0.45 5.28,-0.45 5.29,-0.46 5.28,-0.08 5.28,0.04 5.28,0.03 5.28,0.04 5.29,0.03 5.28,0.03 h 5.28 l 5.28,-0.01 5.28,-0.01 5.29,-0.02 5.28,-0.01 5.28,-0.02 5.28,-0.12 5.28,-0.12 5.29,-0.12 5.28,-0.12 5.28,-0.12 5.28,-0.13 5.28,-0.13 5.29,-0.13 5.28,-0.13 5.28,-0.13 5.28,-0.13 5.28,-0.13 5.29,-0.13 5.28,-0.12 5.28,-0.12 5.28,-0.13 5.28,-0.12 5.29,-0.13 5.28,-0.12 5.28,-0.13 5.28,-0.12 5.28,-0.12 5.29,-0.13 5.28,-0.14 5.28,-0.14 5.28,-0.14 5.28,-0.14 5.28,-0.14 5.29,-0.14"
           style="fill:none;stroke:#01ff00;stroke-width:1.07;stroke-linecap:butt;stroke-linejoin:round;stroke-miterlimit:10;stroke-dasharray:none;stroke-opacity:0.502"
           id="path334" /><path
           d="m 61.16,363.76 5.28,2.16 5.28,2.16 5.29,2.17 5.28,2.16 5.28,2.17 5.28,2.3 5.28,2.97 5.29,2.96 5.28,2.97 5.28,2.97 5.28,2.96 5.28,1.99 5.29,0.21 5.28,0.21 5.28,0.2 5.28,0.21 5.28,0.21 5.29,-0.53 5.28,-1.17 5.28,-1.18 5.28,-1.18 5.28,-1.17 5.29,-1.18 5.28,-0.5 5.28,-0.21 5.28,-0.22 5.28,-0.22 5.29,-0.21 5.28,-0.22 5.28,-0.75 5.28,-0.83 5.28,-0.83 5.29,-0.83 5.28,-0.83 5.28,-0.78 5.28,-0.09 5.28,-0.09 5.29,-0.08 5.28,-0.09 5.28,-0.09 5.28,-0.08 5.28,-0.05 5.29,-0.05 5.28,-0.05 5.28,-0.06 5.28,-0.05 5.28,-0.14 5.29,-0.28 5.28,-0.28 5.28,-0.28 5.28,-0.27 5.28,-0.28 5.29,-0.36 5.28,-0.41 5.28,-0.42 5.28,-0.41 5.28,-0.42 5.29,-0.41 5.28,-0.12 5.28,-0.04 5.28,-0.03 5.28,-0.03 5.29,-0.03 5.28,-0.03 5.28,-0.09 5.28,-0.08 5.28,-0.09 5.29,-0.09 5.28,-0.09 5.28,-0.12 5.28,-0.39 5.28,-0.38 5.29,-0.39 5.28,-0.39 5.28,-0.38 5.28,-0.25 5.28,0.09 5.29,0.1 5.28,0.09 5.28,0.09 5.28,0.09 h 5.28 l 5.29,-0.11 5.28,-0.11 5.28,-0.1 5.28,-0.11 5.28,-0.11 5.29,-0.16 5.28,-0.19 5.28,-0.19 5.28,-0.19 5.28,-0.19 5.29,-0.19 5.28,-0.11 5.28,-0.1 5.28,-0.09 5.28,-0.1 5.28,-0.1 5.29,-0.09"
           style="fill:none;stroke:#01ff00;stroke-width:1.07;stroke-linecap:butt;stroke-linejoin:round;stroke-miterlimit:10;stroke-dasharray:none;stroke-opacity:0.502"
           id="path336" /><path
           d="m 61.16,423.52 5.28,3.27 5.28,3.27 5.29,3.27 5.28,3.27 5.28,3.27 5.28,2.22 5.28,-2.67 5.29,-2.66 5.28,-2.67 5.28,-2.66 5.28,-2.67 5.28,-2.35 5.29,-1.8 5.28,-1.79 5.28,-1.79 5.28,-1.8 5.28,-1.79 5.29,-1.82 5.28,-1.83 5.28,-1.84 5.28,-1.84 5.28,-1.84 5.29,-1.83 5.28,-0.85 5.28,-0.44 5.28,-0.44 5.28,-0.44 5.29,-0.43 5.28,-0.44 5.28,-0.96 5.28,-1.04 5.28,-1.03 5.29,-1.03 5.28,-1.04 5.28,-1 5.28,-0.46 5.28,-0.47 5.29,-0.46 5.28,-0.47 5.28,-0.46 5.28,-0.45 5.28,-0.38 5.29,-0.39 5.28,-0.38 5.28,-0.38 5.28,-0.38 5.28,-0.23 5.29,-0.02 5.28,-0.02 5.28,-0.01 5.28,-0.02 5.28,-0.01 5.29,-0.42 5.28,-0.7 5.28,-0.7 5.28,-0.69 5.28,-0.7 5.29,-0.7 5.28,-0.23 5.28,-0.08 5.28,-0.08 5.28,-0.09 5.29,-0.08 5.28,-0.09 5.28,-0.08 5.28,-0.09 5.28,-0.08 5.29,-0.08 5.28,-0.09 5.28,-0.12 5.28,-0.42 5.28,-0.41 5.29,-0.42 5.28,-0.41 5.28,-0.42 5.28,-0.28 5.28,0.03 5.29,0.03 5.28,0.04 5.28,0.03 5.28,0.03 5.28,-0.04 5.29,-0.14 5.28,-0.13 5.28,-0.13 5.28,-0.13 5.28,-0.14 5.29,-0.02 5.28,0.04 5.28,0.04 5.28,0.04 5.28,0.04 5.29,0.04 h 5.28 l 5.28,-0.02 5.28,-0.02 5.28,-0.01 5.28,-0.02 5.29,-0.01"
           style="fill:none;stroke:#01ff00;stroke-width:1.07;stroke-linecap:butt;stroke-linejoin:round;stroke-miterlimit:10;stroke-dasharray:none;stroke-opacity:0.502"
           id="path338" /><path
           d="m 61.16,375.31 5.59,0.03 5.6,0.02 5.59,0.03 5.59,0.03 5.59,0.02 5.6,0.25 5.59,0.48 5.59,0.47 5.59,0.47 5.6,0.47 5.59,0.48 5.59,1.13 5.6,1.14 5.59,1.14 5.59,1.14 5.59,1.14 5.6,0.28 5.59,-0.58 5.59,-0.58 5.59,-0.58 5.6,-0.58 5.59,-0.58 5.59,-0.23 5.6,-0.24 5.59,-0.23 5.59,-0.23 5.59,-0.23 5.6,0.13 5.59,0.5 5.59,0.49 5.59,0.5 5.6,0.49 5.59,0.5 5.59,-0.52 5.59,-0.52 5.6,-0.51 5.59,-0.52 5.59,-0.52 5.6,0.39 5.59,1.28 5.59,1.29 5.59,1.29 5.6,1.29 5.59,1.29 5.59,-0.11 5.59,-0.1 5.6,-0.1 5.59,-0.1 5.59,-0.11 5.59,-0.16 5.6,-0.23 5.59,-0.22 5.59,-0.23 5.6,-0.22 5.59,-0.22 5.59,-0.54 5.59,-0.53 5.6,-0.54 5.59,-0.54 5.59,-0.53 5.59,-0.08 5.6,0.37 5.59,0.37 5.59,0.37 5.6,0.36 5.59,0.37 5.59,-0.56 5.59,-0.56 5.6,-0.56 5.59,-0.56 5.59,-0.56 5.59,-0.2 5.6,0.15 5.59,0.15 5.59,0.15 5.59,0.15 5.6,0.15 5.59,-0.16 5.59,-0.16 5.6,-0.16 5.59,-0.16 5.59,-0.15 5.59,-0.24 5.6,-0.32 5.59,-0.32 5.59,-0.32 5.59,-0.32 5.6,-0.32 5.59,-0.12 5.59,-0.13 5.6,-0.13 5.59,-0.12 5.59,-0.13 5.59,-0.34 5.6,-0.56 5.59,-0.55 5.59,-0.56 5.59,-0.55 5.6,-0.56"
           style="fill:none;stroke:#ff0000;stroke-width:1.71;stroke-linecap:butt;stroke-linejoin:round;stroke-miterlimit:10;stroke-dasharray:none;stroke-opacity:0.8"
           id="path340" /><path
           d="m 61.16,396.05 5.59,-0.28 5.6,-0.28 5.59,-0.28 5.59,-0.28 5.59,-0.28 5.6,0.2 5.59,0.69 5.59,0.69 5.59,0.69 5.6,0.69 5.59,0.69 5.59,1.49 5.6,1.49 5.59,1.49 5.59,1.49 5.59,1.49 5.6,0.36 5.59,-0.76 5.59,-0.75 5.59,-0.76 5.6,-0.76 5.59,-0.75 5.59,1.11 5.6,1.11 5.59,1.11 5.59,1.11 5.59,1.11 5.6,0.16 5.59,-0.78 5.59,-0.79 5.59,-0.79 5.6,-0.78 5.59,-0.79 5.59,-0.84 5.59,-0.83 5.6,-0.84 5.59,-0.84 5.59,-0.83 5.6,-0.27 5.59,0.29 5.59,0.29 5.59,0.29 5.6,0.29 5.59,0.3 5.59,-0.37 5.59,-0.37 5.6,-0.37 5.59,-0.36 5.59,-0.37 5.59,-0.14 5.6,0.1 5.59,0.09 5.59,0.09 5.6,0.1 5.59,0.09 5.59,-1.31 5.59,-1.31 5.6,-1.31 5.59,-1.31 5.59,-1.31 5.59,-0.54 5.6,0.23 5.59,0.23 5.59,0.22 5.6,0.23 5.59,0.23 5.59,-0.69 5.59,-0.69 5.6,-0.69 5.59,-0.69 5.59,-0.7 5.59,-0.44 5.6,-0.2 5.59,-0.19 5.59,-0.2 5.59,-0.19 5.6,-0.2 5.59,-0.15 5.59,-0.16 5.6,-0.15 5.59,-0.16 5.59,-0.15 5.59,-0.2 5.6,-0.25 5.59,-0.24 5.59,-0.25 5.59,-0.25 5.6,-0.25 5.59,0.02 5.59,0.01 5.6,0.02 5.59,0.01 5.59,0.02 5.59,-0.12 5.6,-0.26 5.59,-0.26 5.59,-0.26 5.59,-0.26 5.6,-0.25"
           style="fill:none;stroke:#ff0000;stroke-width:1.71;stroke-linecap:butt;stroke-linejoin:round;stroke-miterlimit:10;stroke-dasharray:none;stroke-opacity:0.8"
           id="path342" /><path
           d="m 61.16,423.89 5.59,-1.24 5.6,-1.24 5.59,-1.24 5.59,-1.24 5.59,-1.23 5.6,1.46 5.59,4.17 5.59,4.18 5.59,4.17 5.6,4.17 5.59,4.17 5.59,1.68 5.6,1.68 5.59,1.69 5.59,1.68 5.59,1.68 5.6,0.27 5.59,-1.14 5.59,-1.14 5.59,-1.13 5.6,-1.14 5.59,-1.14 5.59,-0.26 5.6,-0.25 5.59,-0.26 5.59,-0.26 5.59,-0.25 5.6,-0.84 5.59,-1.41 5.59,-1.42 5.59,-1.42 5.6,-1.41 5.59,-1.42 5.59,-1.33 5.59,-1.33 5.6,-1.32 5.59,-1.33 5.59,-1.33 5.6,-1 5.59,-0.68 5.59,-0.67 5.59,-0.68 5.6,-0.68 5.59,-0.67 5.59,-1.58 5.59,-1.58 5.6,-1.57 5.59,-1.58 5.59,-1.57 5.59,-0.89 5.6,-0.2 5.59,-0.19 5.59,-0.2 5.6,-0.2 5.59,-0.2 5.59,-0.84 5.59,-0.84 5.6,-0.85 5.59,-0.84 5.59,-0.85 5.59,-0.7 5.6,-0.55 5.59,-0.56 5.59,-0.56 5.6,-0.56 5.59,-0.55 5.59,-0.88 5.59,-0.87 5.6,-0.87 5.59,-0.88 5.59,-0.87 5.59,-0.94 5.6,-1.02 5.59,-1.02 5.59,-1.01 5.59,-1.02 5.6,-1.01 5.59,-0.3 5.59,-0.3 5.6,-0.3 5.59,-0.29 5.59,-0.3 5.59,-0.38 5.6,-0.45 5.59,-0.45 5.59,-0.46 5.59,-0.45 5.6,-0.45 5.59,-0.3 5.59,-0.3 5.6,-0.29 5.59,-0.3 5.59,-0.3 5.59,-0.33 5.6,-0.36 5.59,-0.36 5.59,-0.36 5.59,-0.36 5.6,-0.37"
           style="fill:none;stroke:#ff0000;stroke-width:1.71;stroke-linecap:butt;stroke-linejoin:round;stroke-miterlimit:10;stroke-dasharray:none;stroke-opacity:0.8"
           id="path344" /><path
           d="m 61.16,457.09 5.59,0.09 5.6,0.09 5.59,0.1 5.59,0.09 5.59,0.1 5.6,0.58 5.59,1.06 5.59,1.06 5.59,1.06 5.6,1.06 5.59,1.06 5.59,-0.76 5.6,-0.75 5.59,-0.76 5.59,-0.76 5.59,-0.76 5.6,-1.28 5.59,-1.8 5.59,-1.8 5.59,-1.8 5.6,-1.8 5.59,-1.81 5.59,-1.85 5.6,-1.86 5.59,-1.86 5.59,-1.85 5.59,-1.86 5.6,-1.35 5.59,-0.84 5.59,-0.84 5.59,-0.83 5.6,-0.84 5.59,-0.84 5.59,-1.65 5.59,-1.65 5.6,-1.65 5.59,-1.65 5.59,-1.65 5.6,-1.49 5.59,-1.33 5.59,-1.33 5.59,-1.33 5.6,-1.32 5.59,-1.33 5.59,-1.33 5.59,-1.33 5.6,-1.33 5.59,-1.33 5.59,-1.33 5.59,-1.42 5.6,-1.49 5.59,-1.5 5.59,-1.5 5.6,-1.5 5.59,-1.49 5.59,-0.98 5.59,-0.98 5.6,-0.98 5.59,-0.98 5.59,-0.98 5.59,-0.86 5.6,-0.73 5.59,-0.73 5.59,-0.74 5.6,-0.73 5.59,-0.74 5.59,-0.68 5.59,-0.69 5.6,-0.68 5.59,-0.69 5.59,-0.68 5.59,-0.91 5.6,-1.12 5.59,-1.12 5.59,-1.12 5.59,-1.12 5.6,-1.12 5.59,-0.31 5.59,-0.3 5.6,-0.31 5.59,-0.31 5.59,-0.3 5.59,-0.43 5.6,-0.55 5.59,-0.56 5.59,-0.55 5.59,-0.55 5.6,-0.55 5.59,-0.14 5.59,-0.14 5.6,-0.14 5.59,-0.13 5.59,-0.14 5.59,-0.31 5.6,-0.48 5.59,-0.47 5.59,-0.48 5.59,-0.47 5.6,-0.48"
           style="fill:none;stroke:#0000ff;stroke-width:1.71;stroke-linecap:butt;stroke-linejoin:round;stroke-miterlimit:10;stroke-dasharray:none;stroke-opacity:0.8"
           id="path346" /><path
           d="m 61.16,480.21 5.59,0.56 5.6,0.56 5.59,0.56 5.59,0.56 5.59,0.56 5.6,0.56 5.59,0.56 5.59,0.56 5.59,0.57 5.6,0.56 5.59,0.56 5.59,-1.16 5.6,-1.16 5.59,-1.16 5.59,-1.16 5.59,-1.16 5.6,-1.22 5.59,-1.28 5.59,-1.28 5.59,-1.29 5.6,-1.28 5.59,-1.28 5.59,-2.11 5.6,-2.1 5.59,-2.11 5.59,-2.11 5.59,-2.11 5.6,-1.97 5.59,-1.83 5.59,-1.83 5.59,-1.83 5.6,-1.83 5.59,-1.84 5.59,-1.47 5.59,-1.48 5.6,-1.48 5.59,-1.48 5.59,-1.48 5.6,-1.46 5.59,-1.45 5.59,-1.46 5.59,-1.45 5.6,-1.45 5.59,-1.45 5.59,-0.98 5.59,-0.97 5.6,-0.98 5.59,-0.97 5.59,-0.98 5.59,-1.52 5.6,-2.08 5.59,-2.08 5.59,-2.08 5.6,-2.08 5.59,-2.08 5.59,-1.13 5.59,-1.14 5.6,-1.14 5.59,-1.13 5.59,-1.14 5.59,-1.13 5.6,-1.11 5.59,-1.12 5.59,-1.11 5.6,-1.12 5.59,-1.11 5.59,-0.38 5.59,-0.38 5.6,-0.37 5.59,-0.38 5.59,-0.38 5.59,-1.13 5.6,-1.89 5.59,-1.89 5.59,-1.89 5.59,-1.89 5.6,-1.89 5.59,-0.64 5.59,-0.63 5.6,-0.64 5.59,-0.63 5.59,-0.64 5.59,-0.74 5.6,-0.85 5.59,-0.84 5.59,-0.85 5.59,-0.85 5.6,-0.85 5.59,-0.67 5.59,-0.67 5.6,-0.67 5.59,-0.68 5.59,-0.67 5.59,-0.73 5.6,-0.79 5.59,-0.79 5.59,-0.79 5.59,-0.8 5.6,-0.79"
           style="fill:none;stroke:#0000ff;stroke-width:1.71;stroke-linecap:butt;stroke-linejoin:round;stroke-miterlimit:10;stroke-dasharray:none;stroke-opacity:0.8"
           id="path348" /><path
           d="m 61.16,516.91 5.59,-1.35 5.6,-1.35 5.59,-1.35 5.59,-1.36 5.59,-1.35 5.6,-0.65 5.59,0.05 5.59,0.05 5.59,0.05 5.6,0.05 5.59,0.05 5.59,0.02 5.6,0.02 5.59,0.02 5.59,0.02 5.59,0.01 5.6,-1.08 5.59,-2.2 5.59,-2.2 5.59,-2.19 5.6,-2.2 5.59,-2.2 5.59,-2.44 5.6,-2.44 5.59,-2.44 5.59,-2.44 5.59,-2.44 5.6,-2.46 5.59,-2.48 5.59,-2.47 5.59,-2.48 5.6,-2.48 5.59,-2.48 5.59,-1.34 5.59,-1.33 5.6,-1.34 5.59,-1.34 5.59,-1.34 5.6,-1.63 5.59,-1.93 5.59,-1.93 5.59,-1.94 5.6,-1.93 5.59,-1.93 5.59,-1.18 5.59,-1.18 5.6,-1.18 5.59,-1.18 5.59,-1.18 5.59,-1.89 5.6,-2.61 5.59,-2.6 5.59,-2.61 5.6,-2.61 5.59,-2.6 5.59,-0.89 5.59,-0.89 5.6,-0.9 5.59,-0.89 5.59,-0.89 5.59,-1.21 5.6,-1.55 5.59,-1.54 5.59,-1.54 5.6,-1.54 5.59,-1.54 5.59,-0.7 5.59,-0.69 5.6,-0.7 5.59,-0.7 5.59,-0.69 5.59,-1.12 5.6,-1.55 5.59,-1.55 5.59,-1.54 5.59,-1.55 5.6,-1.55 5.59,-0.75 5.59,-0.76 5.6,-0.75 5.59,-0.75 5.59,-0.76 5.59,-0.96 5.6,-1.17 5.59,-1.18 5.59,-1.17 5.59,-1.18 5.6,-1.17 5.59,-1.18 5.59,-1.17 5.6,-1.17 5.59,-1.18 5.59,-1.17 5.59,-1.18 5.6,-1.17 5.59,-1.17 5.59,-1.18 5.59,-1.17 5.6,-1.18"
           style="fill:none;stroke:#0000ff;stroke-width:1.71;stroke-linecap:butt;stroke-linejoin:round;stroke-miterlimit:10;stroke-dasharray:none;stroke-opacity:0.8"
           id="path350" /></g></g><g
       id="g352" /><g
       id="g354" /><g
       id="g356" /><g
       id="g358" /><g
       id="g360" /><g
       id="g362" /><g
       id="g364" /><g
       id="g366" /><g
       id="g368" /><g
       id="g370" /><g
       id="g372" /><g
       id="g374" /><g
       id="g376" /><g
       id="g378" /><g
       id="g380" /><g
       id="g382"><text
         transform="matrix(1,0,0,-1,23.54,327.27)"
         style="font-variant:normal;font-weight:normal;font-size:9px;font-family:Helvetica;-inkscape-font-specification:Helvetica;writing-mode:lr-tb;fill:#4d4d4d;fill-opacity:1;fill-rule:nonzero;stroke:none"
         id="text386"><tspan
           x="0"
           y="0"
           id="tspan384">0</tspan></text><text
         transform="matrix(1,0,0,-1,18.54,394.49)"
         style="font-variant:normal;font-weight:normal;font-size:9px;font-family:Helvetica;-inkscape-font-specification:Helvetica;writing-mode:lr-tb;fill:#4d4d4d;fill-opacity:1;fill-rule:nonzero;stroke:none"
         id="text390"><tspan
           x="0 5.0040002"
           y="0"
           sodipodi:role="line"
           id="tspan388">20</tspan></text><text
         transform="matrix(1,0,0,-1,18.54,461.72)"
         style="font-variant:normal;font-weight:normal;font-size:9px;font-family:Helvetica;-inkscape-font-specification:Helvetica;writing-mode:lr-tb;fill:#4d4d4d;fill-opacity:1;fill-rule:nonzero;stroke:none"
         id="text394"><tspan
           x="0 5.0040002"
           y="0"
           sodipodi:role="line"
           id="tspan392">40</tspan></text><text
         transform="matrix(1,0,0,-1,18.54,528.94)"
         style="font-variant:normal;font-weight:normal;font-size:9px;font-family:Helvetica;-inkscape-font-specification:Helvetica;writing-mode:lr-tb;fill:#4d4d4d;fill-opacity:1;fill-rule:nonzero;stroke:none"
         id="text398"><tspan
           x="0 5.0040002"
           y="0"
           sodipodi:role="line"
           id="tspan396">60</tspan></text></g><g
       id="g400" /><g
       id="g402"><path
         d="m 30.74,330.5 h 2.74"
         style="fill:none;stroke:#333333;stroke-width:1.07;stroke-linecap:butt;stroke-linejoin:round;stroke-miterlimit:10;stroke-dasharray:none;stroke-opacity:1"
         id="path404" /><path
         d="m 30.74,397.72 h 2.74"
         style="fill:none;stroke:#333333;stroke-width:1.07;stroke-linecap:butt;stroke-linejoin:round;stroke-miterlimit:10;stroke-dasharray:none;stroke-opacity:1"
         id="path406" /><path
         d="m 30.74,464.95 h 2.74"
         style="fill:none;stroke:#333333;stroke-width:1.07;stroke-linecap:butt;stroke-linejoin:round;stroke-miterlimit:10;stroke-dasharray:none;stroke-opacity:1"
         id="path408" /><path
         d="m 30.74,532.18 h 2.74"
         style="fill:none;stroke:#333333;stroke-width:1.07;stroke-linecap:butt;stroke-linejoin:round;stroke-miterlimit:10;stroke-dasharray:none;stroke-opacity:1"
         id="path410" /></g><g
       id="g412" /><g
       id="g414" /><g
       id="g416" /><g
       id="g418" /><g
       id="g420" /><g
       id="g422" /><g
       id="g424" /><g
       id="g426" /><g
       id="g428" /><g
       id="g430"><path
         d="m 153.44,317.17 v 2.74"
         style="fill:none;stroke:#333333;stroke-width:1.07;stroke-linecap:butt;stroke-linejoin:round;stroke-miterlimit:10;stroke-dasharray:none;stroke-opacity:1"
         id="path432" /><path
         d="m 307.24,317.17 v 2.74"
         style="fill:none;stroke:#333333;stroke-width:1.07;stroke-linecap:butt;stroke-linejoin:round;stroke-miterlimit:10;stroke-dasharray:none;stroke-opacity:1"
         id="path434" /><path
         d="m 461.04,317.17 v 2.74"
         style="fill:none;stroke:#333333;stroke-width:1.07;stroke-linecap:butt;stroke-linejoin:round;stroke-miterlimit:10;stroke-dasharray:none;stroke-opacity:1"
         id="path436" /><path
         d="m 614.84,317.17 v 2.74"
         style="fill:none;stroke:#333333;stroke-width:1.07;stroke-linecap:butt;stroke-linejoin:round;stroke-miterlimit:10;stroke-dasharray:none;stroke-opacity:1"
         id="path438" /></g><g
       id="g440" /><g
       id="g442"><text
         transform="matrix(1,0,0,-1,148.44,308.52)"
         style="font-variant:normal;font-weight:normal;font-size:9px;font-family:Helvetica;-inkscape-font-specification:Helvetica;writing-mode:lr-tb;fill:#4d4d4d;fill-opacity:1;fill-rule:nonzero;stroke:none"
         id="text446"><tspan
           x="0 5.0040002"
           y="0"
           sodipodi:role="line"
           id="tspan444">25</tspan></text><text
         transform="matrix(1,0,0,-1,302.23,308.52)"
         style="font-variant:normal;font-weight:normal;font-size:9px;font-family:Helvetica;-inkscape-font-specification:Helvetica;writing-mode:lr-tb;fill:#4d4d4d;fill-opacity:1;fill-rule:nonzero;stroke:none"
         id="text450"><tspan
           x="0 5.0040002"
           y="0"
           sodipodi:role="line"
           id="tspan448">50</tspan></text><text
         transform="matrix(1,0,0,-1,456.03,308.52)"
         style="font-variant:normal;font-weight:normal;font-size:9px;font-family:Helvetica;-inkscape-font-specification:Helvetica;writing-mode:lr-tb;fill:#4d4d4d;fill-opacity:1;fill-rule:nonzero;stroke:none"
         id="text454"><tspan
           x="0 5.0040002"
           y="0"
           sodipodi:role="line"
           id="tspan452">75</tspan></text><text
         transform="matrix(1,0,0,-1,607.33,308.52)"
         style="font-variant:normal;font-weight:normal;font-size:9px;font-family:Helvetica;-inkscape-font-specification:Helvetica;writing-mode:lr-tb;fill:#4d4d4d;fill-opacity:1;fill-rule:nonzero;stroke:none"
         id="text458"><tspan
           x="0 5.0040002 10.008"
           y="0"
           sodipodi:role="line"
           id="tspan456">100</tspan></text></g><g
       id="g460" /><g
       id="g462" /><g
       id="g464" /><g
       id="g466" /><g
       id="g468" /><g
       id="g470" /><g
       id="g472" /><g
       id="g474"><text
         transform="matrix(0,1,1,0,13.38,431.8)"
         style="font-variant:normal;font-weight:normal;font-size:11px;font-family:Helvetica;-inkscape-font-specification:Helvetica;writing-mode:lr-tb;fill:#000000;fill-opacity:1;fill-rule:nonzero;stroke:none"
         id="text478"><tspan
           x="0 5.5"
           y="0"
           sodipodi:role="line"
           id="tspan476">yr</tspan></text></g><g
       id="g480" /><g
       id="g482" /><g
       id="g484" /><g
       id="g486" /><g
       id="g488" /><g
       id="g490"><text
         transform="matrix(1,0,0,-1,33.48,561.19)"
         style="font-variant:normal;font-weight:normal;font-size:13px;font-family:Helvetica;-inkscape-font-specification:Helvetica;writing-mode:lr-tb;fill:#000000;fill-opacity:1;fill-rule:nonzero;stroke:none"
         id="text494"><tspan
           sodipodi:role="line"
           id="tspan492"
           x="0"
           y="0">B) Interval Length</tspan></text></g><g
       id="g496" /><g
       id="g498" /><g
       id="g500" /><g
       id="g502" /><g
       id="g504" /><g
       id="g506" /><g
       id="g508" /><g
       id="g510" /><g
       id="g512" /><g
       id="g514" /><g
       id="g516" /><g
       id="g518" /><g
       id="g520" /><g
       id="g522" /><g
       id="g524" /><g
       id="g526" /><g
       id="g528"><g
         id="g530"
         clip-path="url(#clipPath534)"><path
           d="M 0,0 H 648 V 288 H 0 Z"
           style="fill:#ffffff;fill-opacity:1;fill-rule:nonzero;stroke:#ffffff;stroke-width:1.07;stroke-linecap:round;stroke-linejoin:round;stroke-miterlimit:10;stroke-dasharray:none;stroke-opacity:1"
           id="path536" /></g></g><g
       id="g538" /><g
       id="g540"><g
         id="g542"
         clip-path="url(#clipPath546)"><path
           d="M 28.47,31.91 H 642.52 V 264.85 H 28.47 Z"
           style="fill:#ebebeb;fill-opacity:1;fill-rule:nonzero;stroke:none"
           id="path548" /><path
           d="M 28.47,63.67 H 642.52"
           style="fill:none;stroke:#ffffff;stroke-width:0.53;stroke-linecap:butt;stroke-linejoin:round;stroke-miterlimit:10;stroke-dasharray:none;stroke-opacity:1"
           id="path550" /><path
           d="M 28.47,106.03 H 642.52"
           style="fill:none;stroke:#ffffff;stroke-width:0.53;stroke-linecap:butt;stroke-linejoin:round;stroke-miterlimit:10;stroke-dasharray:none;stroke-opacity:1"
           id="path552" /><path
           d="M 28.47,148.38 H 642.52"
           style="fill:none;stroke:#ffffff;stroke-width:0.53;stroke-linecap:butt;stroke-linejoin:round;stroke-miterlimit:10;stroke-dasharray:none;stroke-opacity:1"
           id="path554" /><path
           d="M 28.47,190.73 H 642.52"
           style="fill:none;stroke:#ffffff;stroke-width:0.53;stroke-linecap:butt;stroke-linejoin:round;stroke-miterlimit:10;stroke-dasharray:none;stroke-opacity:1"
           id="path556" /><path
           d="M 28.47,233.08 H 642.52"
           style="fill:none;stroke:#ffffff;stroke-width:0.53;stroke-linecap:butt;stroke-linejoin:round;stroke-miterlimit:10;stroke-dasharray:none;stroke-opacity:1"
           id="path558" /><path
           d="M 71.89,31.91 V 264.85"
           style="fill:none;stroke:#ffffff;stroke-width:0.53;stroke-linecap:butt;stroke-linejoin:round;stroke-miterlimit:10;stroke-dasharray:none;stroke-opacity:1"
           id="path560" /><path
           d="M 226.95,31.91 V 264.85"
           style="fill:none;stroke:#ffffff;stroke-width:0.53;stroke-linecap:butt;stroke-linejoin:round;stroke-miterlimit:10;stroke-dasharray:none;stroke-opacity:1"
           id="path562" /><path
           d="M 382.02,31.91 V 264.85"
           style="fill:none;stroke:#ffffff;stroke-width:0.53;stroke-linecap:butt;stroke-linejoin:round;stroke-miterlimit:10;stroke-dasharray:none;stroke-opacity:1"
           id="path564" /><path
           d="M 537.08,31.91 V 264.85"
           style="fill:none;stroke:#ffffff;stroke-width:0.53;stroke-linecap:butt;stroke-linejoin:round;stroke-miterlimit:10;stroke-dasharray:none;stroke-opacity:1"
           id="path566" /><path
           d="M 28.47,42.5 H 642.52"
           style="fill:none;stroke:#ffffff;stroke-width:1.07;stroke-linecap:butt;stroke-linejoin:round;stroke-miterlimit:10;stroke-dasharray:none;stroke-opacity:1"
           id="path568" /><path
           d="M 28.47,84.85 H 642.52"
           style="fill:none;stroke:#ffffff;stroke-width:1.07;stroke-linecap:butt;stroke-linejoin:round;stroke-miterlimit:10;stroke-dasharray:none;stroke-opacity:1"
           id="path570" /><path
           d="M 28.47,127.2 H 642.52"
           style="fill:none;stroke:#ffffff;stroke-width:1.07;stroke-linecap:butt;stroke-linejoin:round;stroke-miterlimit:10;stroke-dasharray:none;stroke-opacity:1"
           id="path572" /><path
           d="M 28.47,169.55 H 642.52"
           style="fill:none;stroke:#ffffff;stroke-width:1.07;stroke-linecap:butt;stroke-linejoin:round;stroke-miterlimit:10;stroke-dasharray:none;stroke-opacity:1"
           id="path574" /><path
           d="M 28.47,211.91 H 642.52"
           style="fill:none;stroke:#ffffff;stroke-width:1.07;stroke-linecap:butt;stroke-linejoin:round;stroke-miterlimit:10;stroke-dasharray:none;stroke-opacity:1"
           id="path576" /><path
           d="M 28.47,254.26 H 642.52"
           style="fill:none;stroke:#ffffff;stroke-width:1.07;stroke-linecap:butt;stroke-linejoin:round;stroke-miterlimit:10;stroke-dasharray:none;stroke-opacity:1"
           id="path578" /><path
           d="M 149.42,31.91 V 264.85"
           style="fill:none;stroke:#ffffff;stroke-width:1.07;stroke-linecap:butt;stroke-linejoin:round;stroke-miterlimit:10;stroke-dasharray:none;stroke-opacity:1"
           id="path580" /><path
           d="M 304.48,31.91 V 264.85"
           style="fill:none;stroke:#ffffff;stroke-width:1.07;stroke-linecap:butt;stroke-linejoin:round;stroke-miterlimit:10;stroke-dasharray:none;stroke-opacity:1"
           id="path582" /><path
           d="M 459.55,31.91 V 264.85"
           style="fill:none;stroke:#ffffff;stroke-width:1.07;stroke-linecap:butt;stroke-linejoin:round;stroke-miterlimit:10;stroke-dasharray:none;stroke-opacity:1"
           id="path584" /><path
           d="M 614.61,31.91 V 264.85"
           style="fill:none;stroke:#ffffff;stroke-width:1.07;stroke-linecap:butt;stroke-linejoin:round;stroke-miterlimit:10;stroke-dasharray:none;stroke-opacity:1"
           id="path586" /><path
           d="m 56.38,93.01 5.33,4.78 5.32,4.78 5.33,4.79 5.33,4.78 5.32,4.78 5.33,5.17 5.32,6.96 5.33,6.96 5.32,6.97 5.33,6.96 5.32,6.96 5.33,5.52 5.32,2.86 5.33,2.87 5.32,2.86 5.33,2.86 5.33,2.87 5.32,2.17 5.33,1.56 5.32,1.56 5.33,1.56 5.32,1.56 5.33,1.56 5.32,1.5 5.33,1.47 5.32,1.48 5.33,1.47 5.32,1.47 5.33,1.47 5.33,-2.14 5.32,-2.62 5.33,-2.63 5.32,-2.62 5.33,-2.63 5.32,-2.4 5.33,1.09 5.32,1.09 5.33,1.09 5.32,1.1 5.33,1.09 5.32,0.55 5.33,-1.2 5.33,-1.2 5.32,-1.21 5.33,-1.2 5.32,-1.2 5.33,0.41 5.32,2.72 5.33,2.72 5.32,2.72 5.33,2.72 5.32,2.72 5.33,0.27 5.32,-1.45 5.33,-1.45 5.33,-1.45 5.32,-1.44 5.33,-1.45 5.32,-0.11 5.33,0.3 5.32,0.3 5.33,0.3 5.32,0.3 5.33,0.3 5.32,-1.57 5.33,-1.7 5.32,-1.69 5.33,-1.69 5.33,-1.69 5.32,-1.58 5.33,-0.7 5.32,-0.71 5.33,-0.7 5.32,-0.7 5.33,-0.71 5.32,-0.7 5.33,-0.7 5.32,-0.7 5.33,-0.7 5.32,-0.7 5.33,-0.7 5.33,-1.51 5.32,-2.39 5.33,-2.4 5.32,-2.4 5.33,-2.4 5.32,-2.4 5.33,-3.65 5.32,-4.32 5.33,-4.32 5.32,-4.32 5.33,-4.33 5.32,-4.32 5.33,-2.41 5.33,-2 5.32,-2.01 5.33,-2 5.32,-2 5.33,-2"
           style="fill:none;stroke:#01ff00;stroke-width:1.07;stroke-linecap:butt;stroke-linejoin:round;stroke-miterlimit:10;stroke-dasharray:none;stroke-opacity:0.502"
           id="path588" /><path
           d="m 56.38,133.51 5.33,8.13 5.32,8.12 5.33,8.13 5.33,8.12 5.32,8.13 5.33,7.32 5.32,3.55 5.33,3.56 5.32,3.55 5.33,3.55 5.32,3.56 5.33,2.95 5.32,1.85 5.33,1.86 5.32,1.85 5.33,1.85 5.33,1.85 5.32,1.03 5.33,0.29 5.32,0.28 5.33,0.29 5.32,0.29 5.33,0.29 5.32,0.04 5.33,-0.06 5.32,-0.07 5.33,-0.06 5.32,-0.06 5.33,-0.07 5.33,1.8 5.32,2.04 5.33,2.05 5.32,2.04 5.33,2.04 5.32,1.74 5.33,-3.13 5.32,-3.13 5.33,-3.13 5.32,-3.13 5.33,-3.13 5.32,-2.43 5.33,-0.12 5.33,-0.12 5.32,-0.12 5.33,-0.13 5.32,-0.12 5.33,0.47 5.32,1.32 5.33,1.31 5.32,1.32 5.33,1.31 5.32,1.32 5.33,0.19 5.32,-0.61 5.33,-0.6 5.33,-0.6 5.32,-0.6 5.33,-0.6 5.32,0.24 5.33,0.5 5.32,0.5 5.33,0.51 5.32,0.5 5.33,0.5 5.32,-2.3 5.33,-2.47 5.32,-2.47 5.33,-2.47 5.33,-2.47 5.32,-2.17 5.33,0.15 5.32,0.15 5.33,0.14 5.32,0.15 5.33,0.15 5.32,-0.1 5.33,-0.7 5.32,-0.7 5.33,-0.7 5.32,-0.7 5.33,-0.7 5.33,-1.42 5.32,-2.23 5.33,-2.22 5.32,-2.23 5.33,-2.23 5.32,-2.23 5.33,-3.12 5.32,-3.6 5.33,-3.61 5.32,-3.6 5.33,-3.61 5.32,-3.6 5.33,-2.74 5.33,-2.55 5.32,-2.55 5.33,-2.55 5.32,-2.55 5.33,-2.54"
           style="fill:none;stroke:#01ff00;stroke-width:1.07;stroke-linecap:butt;stroke-linejoin:round;stroke-miterlimit:10;stroke-dasharray:none;stroke-opacity:0.502"
           id="path590" /><path
           d="m 56.38,202.45 5.33,0.18 5.32,0.17 5.33,0.18 5.33,0.17 5.32,0.18 5.33,0.91 5.32,4.37 5.33,4.37 5.32,4.36 5.33,4.37 5.32,4.37 5.33,2.41 5.32,-1.18 5.33,-1.18 5.32,-1.17 5.33,-1.18 5.33,-1.18 5.32,0.16 5.33,1.35 5.32,1.35 5.33,1.35 5.32,1.34 5.33,1.35 5.32,-0.15 5.33,-0.77 5.32,-0.77 5.33,-0.77 5.32,-0.77 5.33,-0.77 5.33,2.01 5.32,2.39 5.33,2.39 5.32,2.38 5.33,2.39 5.32,2.22 5.33,-0.5 5.32,-0.49 5.33,-0.49 5.32,-0.5 5.33,-0.49 5.32,-0.46 5.33,-0.33 5.33,-0.33 5.32,-0.33 5.33,-0.34 5.32,-0.33 5.33,-0.33 5.32,-0.33 5.33,-0.33 5.32,-0.34 5.33,-0.33 5.32,-0.33 5.33,-0.01 5.32,0.23 5.33,0.22 5.33,0.23 5.32,0.22 5.33,0.22 5.32,-0.13 5.33,-0.24 5.32,-0.24 5.33,-0.25 5.32,-0.24 5.33,-0.24 5.32,-1.55 5.33,-1.63 5.32,-1.62 5.33,-1.63 5.33,-1.63 5.32,-1.36 5.33,0.65 5.32,0.65 5.33,0.65 5.32,0.65 5.33,0.65 5.32,0.42 5.33,-0.15 5.32,-0.14 5.33,-0.15 5.32,-0.14 5.33,-0.15 5.33,-1.21 5.32,-2.4 5.33,-2.41 5.32,-2.41 5.33,-2.41 5.32,-2.4 5.33,-3.07 5.32,-3.42 5.33,-3.42 5.32,-3.42 5.33,-3.42 5.32,-3.42 5.33,-2.85 5.33,-2.72 5.32,-2.72 5.33,-2.72 5.32,-2.73 5.33,-2.72"
           style="fill:none;stroke:#01ff00;stroke-width:1.07;stroke-linecap:butt;stroke-linejoin:round;stroke-miterlimit:10;stroke-dasharray:none;stroke-opacity:0.502"
           id="path592" /><path
           d="m 56.38,112.64 5.64,2.24 5.64,2.24 5.64,2.25 5.64,2.24 5.64,2.25 5.64,1.78 5.63,1.32 5.64,1.32 5.64,1.33 5.64,1.32 5.64,1.32 5.64,-0.15 5.64,-0.15 5.63,-0.15 5.64,-0.15 5.64,-0.15 5.64,2.44 5.64,5.03 5.64,5.04 5.64,5.03 5.64,5.03 5.63,5.04 5.64,-0.49 5.64,-0.49 5.64,-0.49 5.64,-0.49 5.64,-0.49 5.64,-0.18 5.63,0.12 5.64,0.13 5.64,0.12 5.64,0.12 5.64,0.13 5.64,0.12 5.64,0.12 5.63,0.13 5.64,0.12 5.64,0.13 5.64,0.4 5.64,0.69 5.64,0.69 5.64,0.69 5.64,0.69 5.63,0.68 5.64,-0.21 5.64,-0.21 5.64,-0.22 5.64,-0.21 5.64,-0.21 5.64,0.1 5.63,0.43 5.64,0.43 5.64,0.42 5.64,0.43 5.64,0.43 5.64,0.35 5.64,0.35 5.64,0.35 5.63,0.35 5.64,0.35 5.64,-0.54 5.64,-1.43 5.64,-1.44 5.64,-1.43 5.64,-1.44 5.63,-1.43 5.64,-0.5 5.64,-0.5 5.64,-0.51 5.64,-0.5 5.64,-0.5 5.64,-0.92 5.63,-1.34 5.64,-1.33 5.64,-1.34 5.64,-1.34 5.64,-1.34 5.64,-1.51 5.64,-1.51 5.64,-1.51 5.63,-1.51 5.64,-1.52 5.64,-1.27 5.64,-1.04 5.64,-1.04 5.64,-1.04 5.64,-1.03 5.63,-1.04 5.64,-0.44 5.64,-0.45 5.64,-0.44 5.64,-0.44 5.64,-0.44 5.64,-0.61 5.63,-0.78 5.64,-0.77 5.64,-0.78 5.64,-0.77 5.64,-0.78"
           style="fill:none;stroke:#ff0000;stroke-width:1.71;stroke-linecap:butt;stroke-linejoin:round;stroke-miterlimit:10;stroke-dasharray:none;stroke-opacity:0.8"
           id="path594" /><path
           d="m 56.38,167.73 5.64,-0.39 5.64,-0.38 5.64,-0.39 5.64,-0.39 5.64,-0.38 5.64,1.01 5.63,2.41 5.64,2.42 5.64,2.41 5.64,2.41 5.64,2.42 5.64,-0.78 5.64,-0.79 5.63,-0.78 5.64,-0.78 5.64,-0.79 5.64,1.62 5.64,4.01 5.64,4.02 5.64,4.02 5.64,4.01 5.63,4.02 5.64,-1.22 5.64,-1.22 5.64,-1.22 5.64,-1.21 5.64,-1.22 5.64,-0.4 5.63,0.43 5.64,0.43 5.64,0.43 5.64,0.43 5.64,0.43 5.64,0.96 5.64,0.95 5.63,0.96 5.64,0.96 5.64,0.95 5.64,-0.62 5.64,-2.21 5.64,-2.21 5.64,-2.21 5.64,-2.21 5.63,-2.21 5.64,2.26 5.64,2.27 5.64,2.27 5.64,2.26 5.64,2.27 5.64,0.96 5.63,-0.34 5.64,-0.35 5.64,-0.34 5.64,-0.34 5.64,-0.35 5.64,-0.31 5.64,-0.32 5.64,-0.32 5.63,-0.31 5.64,-0.32 5.64,-1.36 5.64,-2.41 5.64,-2.4 5.64,-2.4 5.64,-2.41 5.63,-2.4 5.64,1.16 5.64,1.17 5.64,1.16 5.64,1.17 5.64,1.17 5.64,-0.78 5.63,-2.71 5.64,-2.71 5.64,-2.71 5.64,-2.72 5.64,-2.71 5.64,-1.27 5.64,-1.26 5.64,-1.27 5.63,-1.27 5.64,-1.27 5.64,-1.61 5.64,-1.96 5.64,-1.96 5.64,-1.96 5.64,-1.97 5.63,-1.96 5.64,-1.15 5.64,-1.15 5.64,-1.16 5.64,-1.15 5.64,-1.15 5.64,-1.86 5.63,-2.54 5.64,-2.55 5.64,-2.55 5.64,-2.55 5.64,-2.55"
           style="fill:none;stroke:#ff0000;stroke-width:1.71;stroke-linecap:butt;stroke-linejoin:round;stroke-miterlimit:10;stroke-dasharray:none;stroke-opacity:0.8"
           id="path596" /><path
           d="m 56.38,215.63 5.64,0.49 5.64,0.49 5.64,0.49 5.64,0.49 5.64,0.5 5.64,0.82 5.63,1.16 5.64,1.16 5.64,1.16 5.64,1.15 5.64,1.16 5.64,-0.64 5.64,-0.64 5.63,-0.65 5.64,-0.64 5.64,-0.64 5.64,0.33 5.64,1.31 5.64,1.3 5.64,1.31 5.64,1.31 5.63,1.3 5.64,-1.77 5.64,-1.78 5.64,-1.78 5.64,-1.77 5.64,-1.78 5.64,-0.64 5.63,0.51 5.64,0.5 5.64,0.5 5.64,0.5 5.64,0.5 5.64,0.72 5.64,0.71 5.63,0.71 5.64,0.72 5.64,0.71 5.64,0.1 5.64,-0.52 5.64,-0.52 5.64,-0.52 5.64,-0.52 5.63,-0.52 5.64,0.09 5.64,0.09 5.64,0.09 5.64,0.09 5.64,0.09 5.64,-0.4 5.63,-0.9 5.64,-0.9 5.64,-0.9 5.64,-0.9 5.64,-0.9 5.64,1.06 5.64,1.06 5.64,1.07 5.63,1.06 5.64,1.06 5.64,-0.72 5.64,-2.5 5.64,-2.5 5.64,-2.5 5.64,-2.5 5.63,-2.5 5.64,1.26 5.64,1.25 5.64,1.26 5.64,1.26 5.64,1.25 5.64,-0.72 5.63,-2.71 5.64,-2.7 5.64,-2.71 5.64,-2.7 5.64,-2.71 5.64,-1.43 5.64,-1.43 5.64,-1.44 5.63,-1.43 5.64,-1.43 5.64,-1.84 5.64,-2.25 5.64,-2.25 5.64,-2.25 5.64,-2.25 5.63,-2.25 5.64,-2.25 5.64,-2.25 5.64,-2.25 5.64,-2.25 5.64,-2.25 5.64,-2.83 5.63,-3.39 5.64,-3.39 5.64,-3.4 5.64,-3.39 5.64,-3.4"
           style="fill:none;stroke:#ff0000;stroke-width:1.71;stroke-linecap:butt;stroke-linejoin:round;stroke-miterlimit:10;stroke-dasharray:none;stroke-opacity:0.8"
           id="path598" /><path
           d="m 56.38,69.37 5.64,-0.1 5.64,-0.11 5.64,-0.1 5.64,-0.11 5.64,-0.1 5.64,0.25 5.63,0.61 5.64,0.61 5.64,0.61 5.64,0.62 5.64,0.61 5.64,-0.34 5.64,-0.34 5.63,-0.35 5.64,-0.34 5.64,-0.34 5.64,-0.11 5.64,0.12 5.64,0.13 5.64,0.12 5.64,0.12 5.63,0.12 5.64,0.33 5.64,0.32 5.64,0.32 5.64,0.33 5.64,0.32 5.64,0.23 5.63,0.14 5.64,0.13 5.64,0.14 5.64,0.13 5.64,0.14 5.64,0.06 5.64,0.07 5.63,0.07 5.64,0.07 5.64,0.07 5.64,-0.15 5.64,-0.37 5.64,-0.37 5.64,-0.37 5.64,-0.37 5.63,-0.37 5.64,0.03 5.64,0.04 5.64,0.04 5.64,0.04 5.64,0.04 5.64,0.04 5.63,0.03 5.64,0.04 5.64,0.04 5.64,0.04 5.64,0.04 5.64,-0.18 5.64,-0.19 5.64,-0.18 5.63,-0.18 5.64,-0.18 5.64,-0.36 5.64,-0.54 5.64,-0.54 5.64,-0.54 5.64,-0.54 5.63,-0.54 5.64,-0.23 5.64,-0.22 5.64,-0.23 5.64,-0.22 5.64,-0.22 5.64,-0.55 5.63,-0.87 5.64,-0.87 5.64,-0.87 5.64,-0.87 5.64,-0.87 5.64,-0.36 5.64,-0.35 5.64,-0.36 5.63,-0.35 5.64,-0.36 5.64,-0.37 5.64,-0.39 5.64,-0.39 5.64,-0.39 5.64,-0.39 5.63,-0.39 5.64,-0.17 5.64,-0.17 5.64,-0.16 5.64,-0.17 5.64,-0.17 5.64,-0.31 5.63,-0.44 5.64,-0.44 5.64,-0.44 5.64,-0.44 5.64,-0.44"
           style="fill:none;stroke:#0000ff;stroke-width:1.71;stroke-linecap:butt;stroke-linejoin:round;stroke-miterlimit:10;stroke-dasharray:none;stroke-opacity:0.8"
           id="path600" /><path
           d="m 56.38,99.41 5.64,-1.1 5.64,-1.11 5.64,-1.1 5.64,-1.11 5.64,-1.1 5.64,-0.7 5.63,-0.31 5.64,-0.3 5.64,-0.3 5.64,-0.31 5.64,-0.3 5.64,-0.45 5.64,-0.44 5.63,-0.45 5.64,-0.45 5.64,-0.44 5.64,-0.64 5.64,-0.83 5.64,-0.83 5.64,-0.84 5.64,-0.83 5.63,-0.83 5.64,-0.08 5.64,-0.08 5.64,-0.07 5.64,-0.08 5.64,-0.08 5.64,-0.06 5.63,-0.03 5.64,-0.04 5.64,-0.04 5.64,-0.03 5.64,-0.04 5.64,-0.08 5.64,-0.07 5.63,-0.08 5.64,-0.08 5.64,-0.07 5.64,-0.24 5.64,-0.4 5.64,-0.41 5.64,-0.4 5.64,-0.41 5.63,-0.4 5.64,0.51 5.64,0.5 5.64,0.5 5.64,0.51 5.64,0.5 5.64,0.18 5.63,-0.14 5.64,-0.14 5.64,-0.15 5.64,-0.14 5.64,-0.14 5.64,-0.15 5.64,-0.14 5.64,-0.14 5.63,-0.15 5.64,-0.14 5.64,0.03 5.64,0.2 5.64,0.2 5.64,0.19 5.64,0.2 5.63,0.2 5.64,-0.09 5.64,-0.1 5.64,-0.09 5.64,-0.09 5.64,-0.1 5.64,-0.4 5.63,-0.71 5.64,-0.71 5.64,-0.72 5.64,-0.71 5.64,-0.71 5.64,0.16 5.64,0.17 5.64,0.16 5.63,0.17 5.64,0.17 5.64,-0.88 5.64,-1.91 5.64,-1.91 5.64,-1.92 5.64,-1.91 5.63,-1.91 5.64,-0.61 5.64,-0.61 5.64,-0.61 5.64,-0.61 5.64,-0.61 5.64,-0.97 5.63,-1.35 5.64,-1.34 5.64,-1.35 5.64,-1.34 5.64,-1.34"
           style="fill:none;stroke:#0000ff;stroke-width:1.71;stroke-linecap:butt;stroke-linejoin:round;stroke-miterlimit:10;stroke-dasharray:none;stroke-opacity:0.8"
           id="path602" /><path
           d="m 56.38,137.01 5.64,-0.85 5.64,-0.85 5.64,-0.84 5.64,-0.85 5.64,-0.84 5.64,-1.01 5.63,-1.16 5.64,-1.17 5.64,-1.16 5.64,-1.17 5.64,-1.17 5.64,-1.25 5.64,-1.25 5.63,-1.25 5.64,-1.25 5.64,-1.25 5.64,-1.28 5.64,-1.29 5.64,-1.29 5.64,-1.29 5.64,-1.3 5.63,-1.29 5.64,-0.77 5.64,-0.77 5.64,-0.77 5.64,-0.77 5.64,-0.77 5.64,-0.36 5.63,0.07 5.64,0.07 5.64,0.06 5.64,0.07 5.64,0.07 5.64,-1.42 5.64,-1.42 5.63,-1.42 5.64,-1.42 5.64,-1.42 5.64,-1.38 5.64,-1.34 5.64,-1.34 5.64,-1.34 5.64,-1.34 5.63,-1.34 5.64,0.69 5.64,0.69 5.64,0.68 5.64,0.69 5.64,0.69 5.64,0.39 5.63,0.07 5.64,0.08 5.64,0.07 5.64,0.08 5.64,0.08 5.64,-0.39 5.64,-0.39 5.64,-0.39 5.63,-0.39 5.64,-0.39 5.64,0.12 5.64,0.63 5.64,0.64 5.64,0.63 5.64,0.64 5.63,0.64 5.64,-0.02 5.64,-0.02 5.64,-0.02 5.64,-0.02 5.64,-0.02 5.64,-0.02 5.63,-0.03 5.64,-0.02 5.64,-0.02 5.64,-0.02 5.64,-0.02 5.64,0.47 5.64,0.47 5.64,0.46 5.63,0.47 5.64,0.46 5.64,0.18 5.64,-0.11 5.64,-0.11 5.64,-0.11 5.64,-0.11 5.63,-0.11 5.64,0.42 5.64,0.42 5.64,0.42 5.64,0.42 5.64,0.43 5.64,0.48 5.63,0.56 5.64,0.56 5.64,0.55 5.64,0.56 5.64,0.55"
           style="fill:none;stroke:#0000ff;stroke-width:1.71;stroke-linecap:butt;stroke-linejoin:round;stroke-miterlimit:10;stroke-dasharray:none;stroke-opacity:0.8"
           id="path604" /></g></g><g
       id="g606" /><g
       id="g608" /><g
       id="g610" /><g
       id="g612" /><g
       id="g614" /><g
       id="g616" /><g
       id="g618" /><g
       id="g620" /><g
       id="g622" /><g
       id="g624" /><g
       id="g626" /><g
       id="g628" /><g
       id="g630" /><g
       id="g632" /><g
       id="g634" /><g
       id="g636"><text
         transform="matrix(1,0,0,-1,18.54,39.27)"
         style="font-variant:normal;font-weight:normal;font-size:9px;font-family:Helvetica;-inkscape-font-specification:Helvetica;writing-mode:lr-tb;fill:#4d4d4d;fill-opacity:1;fill-rule:nonzero;stroke:none"
         id="text640"><tspan
           x="0"
           y="0"
           id="tspan638">0</tspan></text><text
         transform="matrix(1,0,0,-1,18.54,81.62)"
         style="font-variant:normal;font-weight:normal;font-size:9px;font-family:Helvetica;-inkscape-font-specification:Helvetica;writing-mode:lr-tb;fill:#4d4d4d;fill-opacity:1;fill-rule:nonzero;stroke:none"
         id="text644"><tspan
           x="0"
           y="0"
           id="tspan642">1</tspan></text><text
         transform="matrix(1,0,0,-1,18.54,123.97)"
         style="font-variant:normal;font-weight:normal;font-size:9px;font-family:Helvetica;-inkscape-font-specification:Helvetica;writing-mode:lr-tb;fill:#4d4d4d;fill-opacity:1;fill-rule:nonzero;stroke:none"
         id="text648"><tspan
           x="0"
           y="0"
           id="tspan646">2</tspan></text><text
         transform="matrix(1,0,0,-1,18.54,166.32)"
         style="font-variant:normal;font-weight:normal;font-size:9px;font-family:Helvetica;-inkscape-font-specification:Helvetica;writing-mode:lr-tb;fill:#4d4d4d;fill-opacity:1;fill-rule:nonzero;stroke:none"
         id="text652"><tspan
           x="0"
           y="0"
           id="tspan650">3</tspan></text><text
         transform="matrix(1,0,0,-1,18.54,208.68)"
         style="font-variant:normal;font-weight:normal;font-size:9px;font-family:Helvetica;-inkscape-font-specification:Helvetica;writing-mode:lr-tb;fill:#4d4d4d;fill-opacity:1;fill-rule:nonzero;stroke:none"
         id="text656"><tspan
           x="0"
           y="0"
           id="tspan654">4</tspan></text><text
         transform="matrix(1,0,0,-1,18.54,251.03)"
         style="font-variant:normal;font-weight:normal;font-size:9px;font-family:Helvetica;-inkscape-font-specification:Helvetica;writing-mode:lr-tb;fill:#4d4d4d;fill-opacity:1;fill-rule:nonzero;stroke:none"
         id="text660"><tspan
           x="0"
           y="0"
           id="tspan658">5</tspan></text></g><g
       id="g662" /><g
       id="g664"><path
         d="m 25.73,42.5 h 2.74"
         style="fill:none;stroke:#333333;stroke-width:1.07;stroke-linecap:butt;stroke-linejoin:round;stroke-miterlimit:10;stroke-dasharray:none;stroke-opacity:1"
         id="path666" /><path
         d="m 25.73,84.85 h 2.74"
         style="fill:none;stroke:#333333;stroke-width:1.07;stroke-linecap:butt;stroke-linejoin:round;stroke-miterlimit:10;stroke-dasharray:none;stroke-opacity:1"
         id="path668" /><path
         d="m 25.73,127.2 h 2.74"
         style="fill:none;stroke:#333333;stroke-width:1.07;stroke-linecap:butt;stroke-linejoin:round;stroke-miterlimit:10;stroke-dasharray:none;stroke-opacity:1"
         id="path670" /><path
         d="m 25.73,169.55 h 2.74"
         style="fill:none;stroke:#333333;stroke-width:1.07;stroke-linecap:butt;stroke-linejoin:round;stroke-miterlimit:10;stroke-dasharray:none;stroke-opacity:1"
         id="path672" /><path
         d="m 25.73,211.91 h 2.74"
         style="fill:none;stroke:#333333;stroke-width:1.07;stroke-linecap:butt;stroke-linejoin:round;stroke-miterlimit:10;stroke-dasharray:none;stroke-opacity:1"
         id="path674" /><path
         d="m 25.73,254.26 h 2.74"
         style="fill:none;stroke:#333333;stroke-width:1.07;stroke-linecap:butt;stroke-linejoin:round;stroke-miterlimit:10;stroke-dasharray:none;stroke-opacity:1"
         id="path676" /></g><g
       id="g678" /><g
       id="g680" /><g
       id="g682" /><g
       id="g684" /><g
       id="g686" /><g
       id="g688" /><g
       id="g690" /><g
       id="g692" /><g
       id="g694" /><g
       id="g696"><path
         d="m 149.42,29.17 v 2.74"
         style="fill:none;stroke:#333333;stroke-width:1.07;stroke-linecap:butt;stroke-linejoin:round;stroke-miterlimit:10;stroke-dasharray:none;stroke-opacity:1"
         id="path698" /><path
         d="m 304.48,29.17 v 2.74"
         style="fill:none;stroke:#333333;stroke-width:1.07;stroke-linecap:butt;stroke-linejoin:round;stroke-miterlimit:10;stroke-dasharray:none;stroke-opacity:1"
         id="path700" /><path
         d="m 459.55,29.17 v 2.74"
         style="fill:none;stroke:#333333;stroke-width:1.07;stroke-linecap:butt;stroke-linejoin:round;stroke-miterlimit:10;stroke-dasharray:none;stroke-opacity:1"
         id="path702" /><path
         d="m 614.61,29.17 v 2.74"
         style="fill:none;stroke:#333333;stroke-width:1.07;stroke-linecap:butt;stroke-linejoin:round;stroke-miterlimit:10;stroke-dasharray:none;stroke-opacity:1"
         id="path704" /></g><g
       id="g706" /><g
       id="g708"><text
         transform="matrix(1,0,0,-1,144.42,20.52)"
         style="font-variant:normal;font-weight:normal;font-size:9px;font-family:Helvetica;-inkscape-font-specification:Helvetica;writing-mode:lr-tb;fill:#4d4d4d;fill-opacity:1;fill-rule:nonzero;stroke:none"
         id="text712"><tspan
           x="0 5.0040002"
           y="0"
           sodipodi:role="line"
           id="tspan710">25</tspan></text><text
         transform="matrix(1,0,0,-1,299.48,20.52)"
         style="font-variant:normal;font-weight:normal;font-size:9px;font-family:Helvetica;-inkscape-font-specification:Helvetica;writing-mode:lr-tb;fill:#4d4d4d;fill-opacity:1;fill-rule:nonzero;stroke:none"
         id="text716"><tspan
           x="0 5.0040002"
           y="0"
           sodipodi:role="line"
           id="tspan714">50</tspan></text><text
         transform="matrix(1,0,0,-1,454.54,20.52)"
         style="font-variant:normal;font-weight:normal;font-size:9px;font-family:Helvetica;-inkscape-font-specification:Helvetica;writing-mode:lr-tb;fill:#4d4d4d;fill-opacity:1;fill-rule:nonzero;stroke:none"
         id="text720"><tspan
           x="0 5.0040002"
           y="0"
           sodipodi:role="line"
           id="tspan718">75</tspan></text><text
         transform="matrix(1,0,0,-1,607.1,20.52)"
         style="font-variant:normal;font-weight:normal;font-size:9px;font-family:Helvetica;-inkscape-font-specification:Helvetica;writing-mode:lr-tb;fill:#4d4d4d;fill-opacity:1;fill-rule:nonzero;stroke:none"
         id="text724"><tspan
           x="0 5.0040002 10.008"
           y="0"
           sodipodi:role="line"
           id="tspan722">100</tspan></text></g><g
       id="g726" /><g
       id="g728" /><g
       id="g730" /><g
       id="g732" /><g
       id="g734" /><g
       id="g736"><text
         transform="matrix(1,0,0,-1,295.79,7.9)"
         style="font-variant:normal;font-weight:normal;font-size:11px;font-family:Helvetica;-inkscape-font-specification:Helvetica;writing-mode:lr-tb;fill:#000000;fill-opacity:1;fill-rule:nonzero;stroke:none"
         id="text740"><tspan
           x="0 9.7790003 12.837 18.952999 22.011 25.069 27.511 33.626999 36.355 42.471001 46.409 55.571999 61.688 64.746002 67.188004 73.304001"
           y="0"
           sodipodi:role="line"
           id="tspan738">% of information</tspan></text></g><g
       id="g742" /><g
       id="g744" /><g
       id="g746" /><g
       id="g748" /><g
       id="g750" /><g
       id="g752" /><g
       id="g754" /><g
       id="g756"><text
         transform="matrix(1,0,0,-1,28.47,273.19)"
         style="font-variant:normal;font-weight:normal;font-size:13px;font-family:Helvetica;-inkscape-font-specification:Helvetica;writing-mode:lr-tb;fill:#000000;fill-opacity:1;fill-rule:nonzero;stroke:none"
         id="text760"><tspan
           x="0 9.3859997 13.715 17.329 26.715 33.748001 39.923 47.151001 51.349998 58.577999 65.806"
           y="0"
           sodipodi:role="line"
           id="tspan758">C) Coverage</tspan></text></g><g
       id="g762" /><g
       id="g764" /><g
       id="g766" /><g
       id="g768" /><g
       id="g770" /><g
       id="g772" /><g
       id="g774" /><g
       id="g8071"
       inkscape:label="leyenda"
       transform="translate(667.66024,383.52146)"><g
         id="g8077"><g
           id="g8079"
           clip-path="url(#clipPath8083)" /></g><g
         id="g8089" /><g
         id="g8091"><g
           id="g8093"
           clip-path="url(#clipPath8097)"><path
             d="m -125.07368,438.13609 h 89.659996 v -55.27 h -89.659996 z"
             style="fill:#ffffff;fill-opacity:1;fill-rule:nonzero;stroke:#000000;stroke-width:0.75;stroke-linecap:round;stroke-linejoin:round;stroke-miterlimit:10;stroke-dasharray:none;stroke-opacity:1"
             id="path8099" /><path
             d="m -117.48664,426.35705 h 21.539996"
             style="fill:none;stroke:#0000ff;stroke-width:0.75;stroke-linecap:round;stroke-linejoin:round;stroke-miterlimit:10;stroke-dasharray:none;stroke-opacity:1"
             id="path8101" /><path
             d="m -117.48664,412.53705 h 21.539996"
             style="fill:none;stroke:#ff0000;stroke-width:0.75;stroke-linecap:round;stroke-linejoin:round;stroke-miterlimit:10;stroke-dasharray:none;stroke-opacity:1"
             id="path8103" /><path
             d="m -117.48664,398.71705 h 21.539996"
             style="fill:none;stroke:#01ff00;stroke-width:0.75;stroke-linecap:round;stroke-linejoin:round;stroke-miterlimit:10;stroke-dasharray:none;stroke-opacity:1"
             id="path8105" /><text
             transform="scale(1,-1)"
             style="font-variant:normal;font-weight:normal;font-size:12px;font-family:Helvetica;-inkscape-font-specification:Helvetica;writing-mode:lr-tb;fill:#000000;fill-opacity:1;fill-rule:nonzero;stroke:none"
             id="text8109"
             x="-85.186653"
             y="-422.04706"><tspan
               x="-85.186653 -77.182655 -74.518654 -67.846657"
               y="-422.04706"
               sodipodi:role="line"
               id="tspan8107">Plum</tspan></text><text
             transform="scale(1,-1)"
             style="font-variant:normal;font-weight:normal;font-size:12px;font-family:Helvetica;-inkscape-font-specification:Helvetica;writing-mode:lr-tb;fill:#000000;fill-opacity:1;fill-rule:nonzero;stroke:none"
             id="text8113"
             x="-85.186653"
             y="-408.22705"><tspan
               x="-85.186653 -76.522652 -73.186653 -66.178658 -57.514656 -48.850655"
               y="-408.22705"
               sodipodi:role="line"
               id="tspan8111">CICRS</tspan></text><text
             transform="scale(1,-1)"
             style="font-variant:normal;font-weight:normal;font-size:12px;font-family:Helvetica;-inkscape-font-specification:Helvetica;writing-mode:lr-tb;fill:#000000;fill-opacity:1;fill-rule:nonzero;stroke:none"
             id="text8117"
             x="-85.186653"
             y="-394.40704"><tspan
               x="-85.186653 -76.522652 -69.514656 -60.850655 -52.186653"
               y="-394.40704"
               sodipodi:role="line"
               id="tspan8115">RCRS</tspan></text></g></g></g><text
       xml:space="preserve"
       transform="matrix(0.75000002,0,0,-0.75000002,0,864.00002)"
       id="text9001"
       style="fill:black;fill-opacity:1;line-height:1.25;stroke:none;font-family:sans-serif;font-style:normal;font-weight:normal;font-size:40px;white-space:pre;shape-inside:url(#rect9003)"><tspan
         sodipodi:role="line"
         id="tspan9005"></tspan></text></g></svg>
